<?xml version="1.0" encoding="UTF-8" standalone="no"?>
<svg
   xmlns:dc="http://purl.org/dc/elements/1.1/"
   xmlns:cc="http://creativecommons.org/ns#"
   xmlns:rdf="http://www.w3.org/1999/02/22-rdf-syntax-ns#"
   xmlns:svg="http://www.w3.org/2000/svg"
   xmlns="http://www.w3.org/2000/svg"
   viewBox="0 0 432 408"
   height="408"
   width="432"
   xml:space="preserve"
   id="svg2"
   version="1.1"><metadata
     id="metadata8"><rdf:RDF><cc:Work
         rdf:about=""><dc:format>image/svg+xml</dc:format><dc:type
           rdf:resource="http://purl.org/dc/dcmitype/StillImage" /><dc:title></dc:title></cc:Work></rdf:RDF></metadata><defs
     id="defs6" /><g
     transform="matrix(1.3333333,0,0,-1.3333333,0,408)"
     id="g10"><g
       id="g12" /><g
       id="g14"><g
         transform="matrix(1,0,0,-1,0,306)"
         id="g16"><path
           id="path18"
           style="fill:none;stroke:#000000;stroke-width:4;stroke-linecap:round;stroke-linejoin:miter;stroke-miterlimit:4;stroke-dasharray:none;stroke-opacity:1"
           d="m 273.9645,280.743 v -88.4" /></g><g
         transform="matrix(1,0,0,-1,0,306)"
         id="g20"><path
           id="path22"
           style="fill:none;stroke:#000000;stroke-width:4;stroke-linecap:butt;stroke-linejoin:miter;stroke-miterlimit:4;stroke-dasharray:none;stroke-opacity:1"
           d="m 270.5704,184.1489 c 1.8745,-1.8746 4.9137,-1.8746 6.7882,0 1.8745,1.8745 1.8745,4.9137 0,6.7882 -1.8745,1.8745 -4.9137,1.8745 -6.7882,0 -1.8746,-1.8745 -1.8746,-4.9137 0,-6.7882" /></g><g
         transform="matrix(1,0,0,-1,0,306)"
         id="g24"><path
           id="path26"
           style="fill:none;stroke:#000000;stroke-width:4;stroke-linecap:round;stroke-linejoin:miter;stroke-miterlimit:4;stroke-dasharray:none;stroke-opacity:1"
           d="m 270.9645,183.9313 -44.2,-76.5567" /></g><g
         transform="matrix(1,0,0,-1,0,306)"
         id="g28"><path
           id="path30"
           style="fill:none;stroke:#000000;stroke-width:4;stroke-linecap:butt;stroke-linejoin:miter;stroke-miterlimit:4;stroke-dasharray:none;stroke-opacity:1"
           d="m 219.728,101.9754 c 0.6861,-2.56066 3.3182,-4.08026 5.8788,-3.39414 2.5606,0.68612 4.0802,3.31814 3.3941,5.87874 -0.6861,2.5607 -3.3181,4.0803 -5.8788,3.3942 -2.5606,-0.6862 -4.0802,-3.3182 -3.3941,-5.8788" /></g><g
         transform="matrix(1,0,0,-1,0,306)"
         id="g32"><path
           id="path34"
           style="fill:none;stroke:#0e03a1;stroke-width:4;stroke-linecap:butt;stroke-linejoin:miter;stroke-miterlimit:4;stroke-dasharray:none;stroke-opacity:1"
           d="M 133.328,62.46974 115.4263,93.47642" /></g><path
         id="path36"
         style="fill:#0e03a1;fill-opacity:1;fill-rule:nonzero;stroke:none"
         d="m 111.2694,214.9236 -2.243,-13.4851 10.5569,8.6851 z" /><g
         transform="matrix(1,0,0,-1,0,306)"
         id="g38"><path
           id="path40"
           style="fill:none;stroke:#0e03a1;stroke-width:4;stroke-linecap:butt;stroke-linejoin:miter;stroke-miterlimit:4;stroke-dasharray:none;stroke-opacity:1"
           d="m 111.2694,91.07642 -2.243,13.48508 10.5569,-8.68508 z" /></g><g
         transform="matrix(1,0,0,-1,0,306)"
         id="g42"><path
           id="path44"
           style="fill:none;stroke:#000000;stroke-width:2;stroke-linecap:round;stroke-linejoin:miter;stroke-miterlimit:4;stroke-dasharray:none;stroke-opacity:1"
           d="m 214.8084,280.743 h -88.2" /></g><path
         id="path46"
         style="fill:#000000;fill-opacity:1;fill-rule:nonzero;stroke:none"
         d="m 126.6084,28.85702 -9.6,-3.6 9.6,-3.6 z" /><g
         transform="matrix(1,0,0,-1,0,306)"
         id="g48"><path
           id="path50"
           style="fill:none;stroke:#000000;stroke-width:2;stroke-linecap:butt;stroke-linejoin:miter;stroke-miterlimit:4;stroke-dasharray:none;stroke-opacity:1"
           d="m 126.6084,277.143 -9.6,3.6 9.6,3.6 z" /></g><g
         transform="matrix(1,0,0,-1,0,306)"
         id="g52"><path
           id="path54"
           style="fill:none;stroke:#000000;stroke-width:5;stroke-linecap:square;stroke-linejoin:miter;stroke-miterlimit:4;stroke-dasharray:none;stroke-opacity:1"
           d="m 221.9306,280.7429 h 94.6558" /></g><g
         transform="matrix(1,0,0,-1,0,306)"
         id="g56"><path
           id="path58"
           style="fill:none;stroke:#000000;stroke-width:5;stroke-linecap:butt;stroke-linejoin:miter;stroke-miterlimit:4;stroke-dasharray:none;stroke-opacity:1"
           d="m 235.4529,280.7429 -13.5223,16.7965" /></g><g
         transform="matrix(1,0,0,-1,0,306)"
         id="g60"><path
           id="path62"
           style="fill:none;stroke:#000000;stroke-width:5;stroke-linecap:butt;stroke-linejoin:miter;stroke-miterlimit:4;stroke-dasharray:none;stroke-opacity:1"
           d="M 255.7362,280.7429 242.214,297.5394" /></g><g
         transform="matrix(1,0,0,-1,0,306)"
         id="g64"><path
           id="path66"
           style="fill:none;stroke:#000000;stroke-width:5;stroke-linecap:butt;stroke-linejoin:miter;stroke-miterlimit:4;stroke-dasharray:none;stroke-opacity:1"
           d="m 276.0196,280.7429 -13.5222,16.7965" /></g><g
         transform="matrix(1,0,0,-1,0,306)"
         id="g68"><path
           id="path70"
           style="fill:none;stroke:#000000;stroke-width:5;stroke-linecap:butt;stroke-linejoin:miter;stroke-miterlimit:4;stroke-dasharray:none;stroke-opacity:1"
           d="m 296.303,280.7429 -13.5223,16.7965" /></g><g
         transform="matrix(1,0,0,-1,0,306)"
         id="g72"><path
           id="path74"
           style="fill:none;stroke:#000000;stroke-width:5;stroke-linecap:butt;stroke-linejoin:miter;stroke-miterlimit:4;stroke-dasharray:none;stroke-opacity:1"
           d="m 316.5863,280.7429 -13.5222,16.7965" /></g><g
         transform="matrix(1,0,0,-1,0,306)"
         id="g76"><path
           id="path78"
           style="fill:none;stroke:#000000;stroke-width:1;stroke-linecap:round;stroke-linejoin:round;stroke-miterlimit:4;stroke-dasharray:none;stroke-opacity:1"
           d="m 282.3011,9.460544 v 0" /></g><g
         transform="matrix(1,0,0,-1,0,306)"
         id="g80"><path
           id="path82"
           style="fill:none;stroke:#000000;stroke-width:4;stroke-linecap:round;stroke-linejoin:miter;stroke-miterlimit:4;stroke-dasharray:none;stroke-opacity:1"
           d="M 219.9306,100.3287 143.3739,56.12873" /></g><g
         transform="matrix(1,0,0,-1,0,306)"
         id="g84"><path
           id="path86"
           style="fill:none;stroke:#000000;stroke-width:4;stroke-linecap:butt;stroke-linejoin:miter;stroke-miterlimit:4;stroke-dasharray:none;stroke-opacity:1"
           d="m 134.5806,54.97106 c -0.6862,-2.56064 0.8334,-5.19266 3.3941,-5.87878 2.5606,-0.68612 5.1926,0.83348 5.8788,3.39412 0.6861,2.56063 -0.8335,5.19265 -3.3942,5.87877 -2.5606,0.68612 -5.1926,-0.83347 -5.8787,-3.39411" /></g><g
         transform="matrix(1,0,0,-1,0,306)"
         id="g88"><path
           id="path90"
           style="fill:none;stroke:#000000;stroke-width:2;stroke-linecap:round;stroke-linejoin:miter;stroke-miterlimit:4;stroke-dasharray:none;stroke-opacity:1"
           d="M 273.9645,170.743 V 82.54297" /></g><path
         id="path92"
         style="fill:#000000;fill-opacity:1;fill-rule:nonzero;stroke:none"
         d="m 277.5645,223.457 -3.6,9.6 -3.6,-9.6 z" /><g
         transform="matrix(1,0,0,-1,0,306)"
         id="g94"><path
           id="path96"
           style="fill:none;stroke:#000000;stroke-width:2;stroke-linecap:butt;stroke-linejoin:miter;stroke-miterlimit:4;stroke-dasharray:none;stroke-opacity:1"
           d="m 277.5645,82.54297 -3.6,-9.6 -3.6,9.6 z" /></g><path
         id="path98"
         style="fill:#000000;fill-opacity:1;fill-rule:nonzero;stroke:none"
         d="m 283.427,280.4083 v 1.1118 h -12.9474 v -1.1118 z" /><path
         id="path100"
         style="fill:#000000;fill-opacity:1;fill-rule:nonzero;stroke:none"
         d="m 275.1143,266.0354 -3.0126,7.1372 c -0.1076,0.2869 -0.1794,0.4304 -0.1794,0.4662 0,0.2152 0.6097,0.8967 2.1161,1.0401 0.3586,0.0359 0.7173,0.0718 0.7173,0.6815 0,0.4304 -0.4304,0.4304 -0.538,0.4304 -1.4705,0 -3.0127,-0.1076 -4.519,-0.1076 -0.8967,0 -3.1203,0.1076 -4.0169,0.1076 -0.2152,0 -0.6456,0 -0.6456,-0.7173 0,-0.3946 0.3586,-0.3946 0.8249,-0.3946 2.1519,0 2.3671,-0.3586 2.6899,-1.1477 l 4.2321,-10.0064 -7.5676,-8.1414 -0.4662,-0.3946 c -1.7574,-1.9008 -3.4431,-2.4747 -5.2723,-2.5823 -0.4662,-0.0358 -0.789,-0.0358 -0.789,-0.7173 0,-0.0358 0,-0.3945 0.4663,-0.3945 1.0759,0 2.2595,0.1076 3.3713,0.1076 1.327,0 2.7258,-0.1076 4.0169,-0.1076 0.2152,0 0.6456,0 0.6456,0.7173 0,0.3587 -0.3587,0.3945 -0.4304,0.3945 -0.3228,0.0359 -1.4346,0.1076 -1.4346,1.1119 0,0.5738 0.538,1.1477 0.9684,1.6139 l 3.6582,3.8735 3.2279,3.5148 3.6224,-8.5718 c 0.1435,-0.3946 0.1793,-0.4304 0.1793,-0.5022 0,-0.2869 -0.6814,-0.8966 -2.0801,-1.0401 -0.3946,-0.0358 -0.7174,-0.0717 -0.7174,-0.6814 0,-0.4304 0.3946,-0.4304 0.538,-0.4304 1.0043,0 3.5148,0.1076 4.5191,0.1076 0.8966,0 3.0844,-0.1076 3.981,-0.1076 0.2511,0 0.6815,0 0.6815,0.6815 0,0.4303 -0.3587,0.4303 -0.6456,0.4303 -2.403,0.0359 -2.4747,0.1435 -3.0844,1.5781 -1.3988,3.3355 -3.8018,8.9305 -4.6267,11.0824 2.4389,2.5106 6.2047,6.7786 7.3524,7.7828 1.0401,0.8608 2.403,1.7215 4.5549,1.8291 0.4663,0.0359 0.7891,0.0359 0.7891,0.7173 0,0.0359 0,0.3946 -0.4663,0.3946 -1.0759,0 -2.2595,-0.1076 -3.3713,-0.1076 -1.327,0 -2.6899,0.1076 -3.9811,0.1076 -0.2152,0 -0.6814,0 -0.6814,-0.7173 0,-0.2511 0.1793,-0.3587 0.4304,-0.3946 0.3227,-0.0358 1.4346,-0.1076 1.4346,-1.1118 0,-0.5021 -0.3945,-0.9684 -0.6815,-1.2911 z" /><path
         id="path102"
         style="fill:#000000;fill-opacity:1;fill-rule:nonzero;stroke:none"
         d="m 106.9817,42.758 v 1.11182 H 94.03431 V 42.758 Z" /><path
         id="path104"
         style="fill:#000000;fill-opacity:1;fill-rule:nonzero;stroke:none"
         d="m 107.5424,34.05185 0.5021,0.50211 c 1.076,1.07597 2.2595,2.29539 4.6984,2.47471 0.3945,0.03587 0.7173,0.03587 0.7173,0.68145 0,0.28692 -0.1793,0.43038 -0.4662,0.43038 -0.9325,0 -1.9726,-0.1076 -2.941,-0.1076 -1.1836,0 -2.4389,0.1076 -3.5865,0.1076 -0.2152,0 -0.6815,0 -0.6815,-0.68144 0,-0.39452 0.3587,-0.43039 0.538,-0.43039 0.2511,0 1.2911,-0.07173 1.2911,-0.8249 0,-0.60971 -0.8249,-1.54221 -0.9683,-1.72154 l -8.32078,-9.57605 -3.94519,10.65201 c -0.21519,0.50212 -0.21519,0.57385 -0.21519,0.60972 0,0.86076 1.7574,0.86076 2.11605,0.86076 0.50212,0 0.86077,0 0.86077,0.71731 0,0.39452 -0.43038,0.39452 -0.53798,0.39452 -1.00423,0 -3.5148,-0.1076 -4.51903,-0.1076 -0.89664,0 -3.12029,0.1076 -4.01693,0.1076 -0.21519,0 -0.68144,0 -0.68144,-0.71731 0,-0.39452 0.35866,-0.39452 0.82491,-0.39452 2.15192,0 2.29538,-0.32278 2.61817,-1.21942 l 4.41144,-11.7997 c 0.03586,-0.1076 0.14346,-0.50212 0.14346,-0.60971 0,-0.1076 -1.43462,-5.88192 -1.61394,-6.5275 -0.46625,-1.97259 -0.50212,-2.08019 -3.37135,-2.11605 -0.68144,0 -0.96836,0 -0.96836,-0.71731 0,-0.39452 0.43038,-0.39452 0.50211,-0.39452 1.00423,0 3.51481,0.1076 4.51904,0.1076 1.00423,0 3.58654,-0.1076 4.59077,-0.1076 0.25105,0 0.68144,0 0.68144,0.71731 0,0.39452 -0.32279,0.39452 -1.00423,0.39452 -0.07173,0 -0.75318,0 -1.36289,0.07173 -0.75317,0.07173 -0.96836,0.14346 -0.96836,0.57384 0,0.25106 0.32279,1.50635 0.50211,2.25952 l 1.25529,5.05702 c 0.17933,0.68144 0.21519,0.78903 0.50212,1.11182 z" /><path
         id="path106"
         style="fill:#000000;fill-opacity:1;fill-rule:nonzero;stroke:none"
         d="m 295.2491,185.2491 c 0,2.3671 -0.6456,7.3524 -4.3039,7.3524 -4.9853,0 -10.5085,-10.114 -10.5085,-18.3272 0,-3.3713 1.0401,-7.3524 4.3038,-7.3524 5.057,0 10.5086,10.2934 10.5086,18.3272 z m -11.0107,-4.9135 c 0.6097,2.2953 1.327,5.1646 2.7616,7.711 0.9684,1.7574 2.2954,3.7659 3.9094,3.7659 1.7574,0 1.9726,-2.2954 1.9726,-4.3397 0,-1.7574 -0.287,-3.5866 -1.1477,-7.1372 z m 7.1731,-1.1477 c -0.3945,-1.6498 -1.1477,-4.6984 -2.5106,-7.2807 -1.2553,-2.4388 -2.6182,-4.1962 -4.1604,-4.1962 -1.1835,0 -1.9367,1.04 -1.9367,4.3755 0,1.5064 0.2152,3.5866 1.1477,7.1014 z" /><path
         id="path108"
         style="fill:#000000;fill-opacity:1;fill-rule:nonzero;stroke:none"
         d="m 308.4459,166.5037 h -0.8536 c -0.0753,-0.5524 -0.3264,-2.0336 -0.6527,-2.2846 -0.2009,-0.1507 -2.134,-0.1507 -2.4855,-0.1507 h -4.6195 c 2.6361,2.3348 3.5148,3.0378 5.0212,4.2178 1.8578,1.4812 3.5901,3.0378 3.5901,5.4228 0,3.0378 -2.6612,4.8956 -5.8747,4.8956 -3.1131,0 -5.222,-2.1842 -5.222,-4.4939 0,-1.2804 1.0795,-1.4059 1.3306,-1.4059 0.6025,0 1.3306,0.4268 1.3306,1.3306 0,0.4519 -0.1758,1.3306 -1.4812,1.3306 0.7782,1.7825 2.4854,2.3348 3.6654,2.3348 2.5105,0 3.816,-1.9582 3.816,-3.9918 0,-2.1842 -1.5565,-3.9165 -2.3599,-4.8203 l -6.0505,-5.9751 c -0.251,-0.226 -0.251,-0.2762 -0.251,-0.9792 h 10.3435 z" /><g
         transform="matrix(1,0,0,-1,0,306)"
         id="g110"><path
           id="path112"
           style="fill:none;stroke:#000000;stroke-width:2;stroke-linecap:butt;stroke-linejoin:miter;stroke-miterlimit:4;stroke-dasharray:none;stroke-opacity:1"
           d="m 254.5603,128.275 c 6.2395,-1.5418 12.8116,-2.191 19.4042,-1.8887" /></g><path
         id="path114"
         style="fill:#000000;fill-opacity:1;fill-rule:nonzero;stroke:none"
         d="m 253.3766,181.1248 -7.8826,-6.5563 10.2499,-0.2434 z" /><g
         transform="matrix(1,0,0,-1,0,306)"
         id="g116"><path
           id="path118"
           style="fill:none;stroke:#000000;stroke-width:2;stroke-linecap:butt;stroke-linejoin:miter;stroke-miterlimit:4;stroke-dasharray:none;stroke-opacity:1"
           d="m 253.3766,124.8752 -7.8826,6.5563 10.2499,0.2434 z" /></g><g
         transform="matrix(1,0,0,-1,0,306)"
         id="g120"><path
           id="path122"
           style="fill:none;stroke:#000000;stroke-width:2;stroke-linecap:butt;stroke-linejoin:miter;stroke-miterlimit:4;stroke-dasharray:none;stroke-opacity:1"
           d="m 189.1294,66.17818 c 9.2389,-8.94737 22.131,-14.18962 35.836,-14.18961" /></g><path
         id="path124"
         style="fill:#000000;fill-opacity:1;fill-rule:nonzero;stroke:none"
         d="m 186.3198,242.0726 -3.1924,-9.7432 8.8117,5.2417 z" /><g
         transform="matrix(1,0,0,-1,0,306)"
         id="g126"><path
           id="path128"
           style="fill:none;stroke:#000000;stroke-width:2;stroke-linecap:butt;stroke-linejoin:miter;stroke-miterlimit:4;stroke-dasharray:none;stroke-opacity:1"
           d="m 186.3198,63.92743 -3.1924,9.74315 8.8117,-5.24166 z" /></g><g
         transform="matrix(1,0,0,-1,0,306)"
         id="g130"><path
           id="path132"
           style="fill:none;stroke:#000000;stroke-width:2;stroke-linecap:round;stroke-linejoin:miter;stroke-miterlimit:4;stroke-dasharray:6, 4;stroke-dashoffset:0;stroke-opacity:1"
           d="M 224.9654,89.09032 V 39.09033" /></g><path
         id="path134"
         style="fill:#000000;fill-opacity:1;fill-rule:nonzero;stroke:none"
         d="m 192.1626,278.3282 c 0,2.3671 -0.6455,7.3524 -4.3038,7.3524 -4.9853,0 -10.5086,-10.114 -10.5086,-18.3272 0,-3.3713 1.0401,-7.3524 4.3039,-7.3524 5.057,0 10.5085,10.2934 10.5085,18.3272 z m -11.0106,-4.9135 c 0.6097,2.2954 1.327,5.1646 2.7616,7.711 0.9684,1.7574 2.2954,3.7659 3.9093,3.7659 1.7574,0 1.9726,-2.2954 1.9726,-4.3397 0,-1.7574 -0.2869,-3.5866 -1.1477,-7.1372 z m 7.173,-1.1477 c -0.3945,-1.6498 -1.1476,-4.6984 -2.5105,-7.2807 -1.2553,-2.4388 -2.6182,-4.1962 -4.1604,-4.1962 -1.1836,0 -1.9367,1.0401 -1.9367,4.3755 0,1.5064 0.2152,3.5866 1.1477,7.1014 z" /><path
         id="path136"
         style="fill:#000000;fill-opacity:1;fill-rule:nonzero;stroke:none"
         d="m 199.535,263.3988 c 1.9582,0 3.3641,-1.3557 3.3641,-4.042 0,-3.1131 -1.8076,-4.042 -3.2637,-4.042 -1.0043,0 -3.2136,0.2762 -4.268,1.7574 1.18,0.0502 1.4561,0.8787 1.4561,1.4059 0,0.8034 -0.6025,1.3808 -1.3808,1.3808 -0.7029,0 -1.4059,-0.4268 -1.4059,-1.4561 0,-2.3599 2.611,-3.8914 5.6488,-3.8914 3.4897,0 5.8998,2.3349 5.8998,4.8454 0,1.9583 -1.6067,3.9165 -4.3684,4.4939 2.6361,0.9541 3.5901,2.837 3.5901,4.3684 0,1.9834 -2.2846,3.4646 -5.0713,3.4646 -2.7867,0 -4.9207,-1.3557 -4.9207,-3.3641 0,-0.8536 0.5523,-1.3306 1.3055,-1.3306 0.7783,0 1.2804,0.5774 1.2804,1.2803 0,0.7281 -0.5021,1.2553 -1.2804,1.3055 0.8787,1.1047 2.611,1.3809 3.5399,1.3809 1.1297,0 2.7114,-0.5524 2.7114,-2.7366 0,-1.0544 -0.3515,-2.2093 -1.0042,-2.9875 -0.8285,-0.9541 -1.5315,-1.0043 -2.7868,-1.0796 -0.6276,-0.0502 -0.6778,-0.0502 -0.8033,-0.0753 -0.0503,0 -0.2511,-0.0502 -0.2511,-0.3264 0,-0.3515 0.2259,-0.3515 0.6527,-0.3515 z" /><g
         transform="matrix(1,0,0,-1,0,306)"
         id="g138"><path
           id="path140"
           style="fill:none;stroke:#ff0000;stroke-width:1;stroke-linecap:butt;stroke-linejoin:miter;stroke-miterlimit:4;stroke-dasharray:none;stroke-opacity:1"
           d="m 35.94682,170.743 h 36.1295" /></g><path
         id="path142"
         style="fill:#ff0000;fill-opacity:1;fill-rule:nonzero;stroke:none"
         d="m 72.07632,132.257 8,3 -8,3 z" /><g
         transform="matrix(1,0,0,-1,0,306)"
         id="g144"><path
           id="path146"
           style="fill:none;stroke:#ff0000;stroke-width:1;stroke-linecap:butt;stroke-linejoin:miter;stroke-miterlimit:4;stroke-dasharray:none;stroke-opacity:1"
           d="m 72.07632,173.743 8,-3 -8,-3 z" /></g><g
         transform="matrix(1,0,0,-1,0,306)"
         id="g148"><path
           id="path150"
           style="fill:none;stroke:#ff0000;stroke-width:1;stroke-linecap:butt;stroke-linejoin:miter;stroke-miterlimit:4;stroke-dasharray:none;stroke-opacity:1"
           d="m 35.94682,190.743 h 36.1295" /></g><path
         id="path152"
         style="fill:#ff0000;fill-opacity:1;fill-rule:nonzero;stroke:none"
         d="m 72.07632,112.257 8,3 -8,3 z" /><g
         transform="matrix(1,0,0,-1,0,306)"
         id="g154"><path
           id="path156"
           style="fill:none;stroke:#ff0000;stroke-width:1;stroke-linecap:butt;stroke-linejoin:miter;stroke-miterlimit:4;stroke-dasharray:none;stroke-opacity:1"
           d="m 72.07632,193.743 8,-3 -8,-3 z" /></g><g
         transform="matrix(1,0,0,-1,0,306)"
         id="g158"><path
           id="path160"
           style="fill:none;stroke:#ff0000;stroke-width:1;stroke-linecap:butt;stroke-linejoin:miter;stroke-miterlimit:4;stroke-dasharray:none;stroke-opacity:1"
           d="m 35.94682,210.743 h 36.1295" /></g><path
         id="path162"
         style="fill:#ff0000;fill-opacity:1;fill-rule:nonzero;stroke:none"
         d="m 72.07632,92.25703 8,3 -8,3 z" /><g
         transform="matrix(1,0,0,-1,0,306)"
         id="g164"><path
           id="path166"
           style="fill:none;stroke:#ff0000;stroke-width:1;stroke-linecap:butt;stroke-linejoin:miter;stroke-miterlimit:4;stroke-dasharray:none;stroke-opacity:1"
           d="m 72.07632,213.743 8,-3 -8,-3 z" /></g><g
         transform="matrix(1,0,0,-1,0,306)"
         id="g168"><path
           id="path170"
           style="fill:none;stroke:#ff0000;stroke-width:1;stroke-linecap:butt;stroke-linejoin:miter;stroke-miterlimit:4;stroke-dasharray:none;stroke-opacity:1"
           d="m 35.94682,230.743 h 36.1295" /></g><path
         id="path172"
         style="fill:#ff0000;fill-opacity:1;fill-rule:nonzero;stroke:none"
         d="m 72.07632,72.25703 8,3 -8,3 z" /><g
         transform="matrix(1,0,0,-1,0,306)"
         id="g174"><path
           id="path176"
           style="fill:none;stroke:#ff0000;stroke-width:1;stroke-linecap:butt;stroke-linejoin:miter;stroke-miterlimit:4;stroke-dasharray:none;stroke-opacity:1"
           d="m 72.07632,233.743 8,-3 -8,-3 z" /></g><path
         id="path178"
         style="fill:#000000;fill-opacity:1;fill-rule:nonzero;stroke:none"
         d="m 245.3635,90.49878 c 0,0.03587 0,0.39452 -0.4662,0.39452 -0.8249,0 -3.4431,-0.28692 -4.3756,-0.35865 -0.2869,-0.03587 -0.6814,-0.07174 -0.6814,-0.75318 0,-0.39452 0.3586,-0.39452 0.8966,-0.39452 1.7216,0 1.7574,-0.32278 1.7574,-0.60971 l -0.1076,-0.7173 -4.519,-17.93268 c -0.1076,-0.39452 -0.1793,-0.64558 -0.1793,-1.21943 0,-2.04432 1.578,-3.29961 3.2637,-3.29961 1.1836,0 2.0802,0.71731 2.6899,2.00846 0.6456,1.36288 1.076,3.44308 1.076,3.51481 0,0.35865 -0.3228,0.35865 -0.4304,0.35865 -0.3587,0 -0.3945,-0.14346 -0.5021,-0.64558 -0.6097,-2.33125 -1.2912,-4.4473 -2.7258,-4.4473 -1.076,0 -1.076,1.14769 -1.076,1.6498 0,0.86077 0.0359,1.0401 0.2152,1.72154 z" /><path
         id="path180"
         style="fill:#000000;fill-opacity:1;fill-rule:nonzero;stroke:none"
         d="m 255.2235,76.58795 c 0,0.67785 -0.0502,0.70296 -0.7532,0.70296 -1.6067,-1.58166 -3.8914,-1.60676 -4.9207,-1.60676 v -0.90381 c 0.6025,0 2.2595,0 3.6403,0.70296 V 62.6794 c 0,-0.82848 0,-1.15486 -2.5105,-1.15486 h -0.9541 v -0.9038 c 0.4519,0.0251 3.5399,0.10042 4.4689,0.10042 0.7782,0 3.9415,-0.07532 4.4939,-0.10042 v 0.9038 h -0.954 c -2.5106,0 -2.5106,0.32638 -2.5106,1.15486 z" /><path
         id="path182"
         style="fill:#000000;fill-opacity:1;fill-rule:nonzero;stroke:none"
         d="m 227.1059,161.5399 c 0,0.0359 0,0.3945 -0.4663,0.3945 -0.8249,0 -3.4431,-0.2869 -4.3756,-0.3586 -0.2869,-0.0359 -0.6814,-0.0717 -0.6814,-0.7532 0,-0.3945 0.3586,-0.3945 0.8966,-0.3945 1.7216,0 1.7574,-0.3228 1.7574,-0.6097 l -0.1076,-0.7173 -4.519,-17.9327 c -0.1076,-0.3945 -0.1793,-0.6456 -0.1793,-1.2194 0,-2.0444 1.578,-3.2996 3.2637,-3.2996 1.1836,0 2.0802,0.7173 2.6899,2.0084 0.6456,1.3629 1.076,3.4431 1.076,3.5148 0,0.3587 -0.3228,0.3587 -0.4304,0.3587 -0.3587,0 -0.3945,-0.1435 -0.5021,-0.6456 -0.6097,-2.3312 -1.2912,-4.4473 -2.7258,-4.4473 -1.0759,0 -1.0759,1.1477 -1.0759,1.6498 0,0.8608 0.0358,1.0401 0.2151,1.7215 z" /><path
         id="path184"
         style="fill:#000000;fill-opacity:1;fill-rule:nonzero;stroke:none"
         d="m 241.2338,136.2311 h -0.8536 c -0.0753,-0.5523 -0.3264,-2.0335 -0.6528,-2.2846 -0.2008,-0.1506 -2.134,-0.1506 -2.4854,-0.1506 h -4.6195 c 2.6361,2.3348 3.5148,3.0377 5.0211,4.2177 1.8579,1.4812 3.5902,3.0378 3.5902,5.4228 0,3.0378 -2.6612,4.8956 -5.8748,4.8956 -3.1131,0 -5.2219,-2.1841 -5.2219,-4.4939 0,-1.2804 1.0795,-1.4059 1.3306,-1.4059 0.6025,0 1.3306,0.4268 1.3306,1.3306 0,0.4519 -0.1758,1.3306 -1.4813,1.3306 0.7783,1.7825 2.4855,2.3348 3.6654,2.3348 2.5106,0 3.8161,-1.9582 3.8161,-3.9918 0,-2.1842 -1.5565,-3.9164 -2.3599,-4.8203 l -6.0505,-5.9751 c -0.251,-0.226 -0.251,-0.2762 -0.251,-0.9791 h 10.3435 z" /><path
         id="path186"
         style="fill:#000000;fill-opacity:1;fill-rule:nonzero;stroke:none"
         d="m 162.9964,221.3821 c 0,0.0359 0,0.3946 -0.4663,0.3946 -0.8249,0 -3.443,-0.287 -4.3755,-0.3587 -0.287,-0.0359 -0.6815,-0.0717 -0.6815,-0.7532 0,-0.3945 0.3587,-0.3945 0.8967,-0.3945 1.7215,0 1.7574,-0.3228 1.7574,-0.6097 l -0.1076,-0.7173 -4.5191,-17.9327 c -0.1076,-0.3945 -0.1793,-0.6456 -0.1793,-1.2194 0,-2.0443 1.5781,-3.2996 3.2637,-3.2996 1.1836,0 2.0802,0.7173 2.69,2.0084 0.6455,1.3629 1.0759,3.4431 1.0759,3.5149 0,0.3586 -0.3228,0.3586 -0.4304,0.3586 -0.3586,0 -0.3945,-0.1435 -0.5021,-0.6456 -0.6097,-2.3312 -1.2911,-4.4473 -2.7258,-4.4473 -1.0759,0 -1.0759,1.1477 -1.0759,1.6498 0,0.8608 0.0359,1.0401 0.2152,1.7216 z" /><path
         id="path188"
         style="fill:#000000;fill-opacity:1;fill-rule:nonzero;stroke:none"
         d="m 171.2998,199.8894 c 1.9582,0 3.3641,-1.3557 3.3641,-4.042 0,-3.1131 -1.8076,-4.042 -3.2637,-4.042 -1.0042,0 -3.2135,0.2761 -4.268,1.7574 1.18,0.0502 1.4562,0.8787 1.4562,1.4059 0,0.8034 -0.6026,1.3808 -1.3808,1.3808 -0.703,0 -1.406,-0.4268 -1.406,-1.4561 0,-2.36 2.611,-3.8914 5.6488,-3.8914 3.4897,0 5.8998,2.3348 5.8998,4.8454 0,1.9582 -1.6067,3.9165 -4.3683,4.4939 2.6361,0.954 3.5901,2.8369 3.5901,4.3684 0,1.9833 -2.2846,3.4646 -5.0714,3.4646 -2.7867,0 -4.9207,-1.3557 -4.9207,-3.3642 0,-0.8536 0.5523,-1.3306 1.3055,-1.3306 0.7783,0 1.2804,0.5774 1.2804,1.2804 0,0.7281 -0.5021,1.2553 -1.2804,1.3055 0.8787,1.1046 2.611,1.3808 3.5399,1.3808 1.1298,0 2.7114,-0.5523 2.7114,-2.7365 0,-1.0544 -0.3515,-2.2093 -1.0042,-2.9876 -0.8285,-0.954 -1.5315,-1.0042 -2.7867,-1.0795 -0.6277,-0.0502 -0.6779,-0.0502 -0.8034,-0.0753 -0.0502,0 -0.2511,-0.0503 -0.2511,-0.3264 0,-0.3515 0.226,-0.3515 0.6528,-0.3515 z" /><path
         id="path190"
         style="fill:#000000;fill-opacity:1;fill-rule:nonzero;stroke:none"
         d="m 19.42641,99.64216 c 0.39452,-1.47048 1.64981,-2.40298 3.19202,-2.40298 1.25529,0 2.08019,0.82491 2.65403,1.9726 0.60972,1.29112 1.07597,3.47892 1.07597,3.55062 0,0.3587 -0.32279,0.3587 -0.43039,0.3587 -0.35865,0 -0.39452,-0.1435 -0.50211,-0.6456 -0.50212,-2.0084 -1.18356,-4.44728 -2.68991,-4.44728 -0.75317,0 -1.11182,0.46625 -1.11182,1.64981 0,0.78907 0.43038,2.47467 0.71731,3.72997 l 1.00423,3.8735 c 0.10759,0.538 0.46624,1.9008 0.60971,2.4388 0.17932,0.8249 0.53798,2.1878 0.53798,2.403 0,0.6456 -0.50212,0.9684 -1.0401,0.9684 -0.17933,0 -1.11182,-0.0359 -1.39875,-1.2553 -0.68144,-2.6182 -2.25952,-8.8946 -2.6899,-10.7955 -0.03587,-0.1435 -1.47048,-3.01268 -4.08865,-3.01268 -1.865,0 -2.22365,1.61394 -2.22365,2.94098 0,2.0084 1.00423,4.8418 1.93673,7.3165 0.43038,1.076 0.60971,1.5781 0.60971,2.2595 0,1.614 -1.14769,2.941 -2.94096,2.941 -3.407211,0 -4.73423,-5.2005 -4.73423,-5.5233 0,-0.3586 0.358654,-0.3586 0.430385,-0.3586 0.358653,0 0.394519,0.0717 0.573846,0.6455 0.896634,3.1203 2.259519,4.4474 3.622399,4.4474 0.32279,0 0.89664,-0.0359 0.89664,-1.1836 0,-0.8608 -0.39452,-1.9009 -0.60972,-2.4388 -1.32701,-3.5507 -2.08019,-5.7744 -2.08019,-7.5318 0,-3.40718 2.47471,-4.30382 4.41144,-4.30382 2.36712,0 3.65827,1.61394 4.26798,2.40298 z" /><path
         id="path192"
         style="fill:#000000;fill-opacity:1;fill-rule:nonzero;stroke:none"
         d="m 96.01033,182.6477 h 3.08442 c 0.71731,0 1.07595,0 1.07595,0.7173 0,0.3946 -0.35864,0.3946 -0.96835,0.3946 h -2.97683 l 0.75317,4.0886 c 0.14347,0.7532 0.64558,3.2996 0.86077,3.73 0.32279,0.6815 0.9325,1.2194 1.68568,1.2194 0.14346,0 1.07596,0 1.75736,-0.6455 -1.57804,-0.1435 -1.93669,-1.3988 -1.93669,-1.9368 0,-0.8249 0.64557,-1.2553 1.32699,-1.2553 0.9325,0 1.9726,0.7891 1.9726,2.152 0,1.6498 -1.6498,2.4747 -3.12026,2.4747 -1.21943,0 -3.47894,-0.6456 -4.55491,-4.1963 -0.21519,-0.7532 -0.32278,-1.1118 -1.18355,-5.6308 h -2.47471 c -0.68144,0 -1.07596,0 -1.07596,-0.6815 0,-0.4304 0.32279,-0.4304 1.00423,-0.4304 h 2.36711 l -2.6899,-14.1668 c -0.64558,-3.4789 -1.25529,-6.7427 -3.12029,-6.7427 -0.14346,0 -1.04009,0 -1.72153,0.6456 1.6498,0.1076 1.97259,1.3988 1.97259,1.9367 0,0.8249 -0.64558,1.2553 -1.32702,1.2553 -0.9325,0 -1.97259,-0.789 -1.97259,-2.1519 0,-1.6139 1.57807,-2.4747 3.04855,-2.4747 1.9726,0 3.40721,2.116 4.05279,3.4789 1.14769,2.2595 1.97259,6.5993 2.00846,6.8503 z" /></g></g></svg>