<?xml version="1.0" encoding="utf-8" standalone="no"?>
<!DOCTYPE svg PUBLIC "-//W3C//DTD SVG 1.1//EN"
  "http://www.w3.org/Graphics/SVG/1.1/DTD/svg11.dtd">
<!-- Created with matplotlib (http://matplotlib.org/) -->
<svg height="288pt" version="1.1" viewBox="0 0 432 288" width="432pt" xmlns="http://www.w3.org/2000/svg" xmlns:xlink="http://www.w3.org/1999/xlink">
 <defs>
  <style type="text/css">
*{stroke-linecap:butt;stroke-linejoin:round;}
  </style>
 </defs>
 <g id="figure_1">
  <g id="patch_1">
   <path d="M 0 288 
L 432 288 
L 432 0 
L 0 0 
z
" style="fill:#ffffff;"/>
  </g>
  <g id="axes_1">
   <g id="patch_2">
    <path d="M 85.66121 228 
L 416.5 228 
L 416.5 15.5 
L 85.66121 15.5 
z
" style="fill:#ffffff;"/>
   </g>
   <g id="matplotlib.axis_1">
    <g id="xtick_1">
     <g id="line2d_1">
      <defs>
       <path d="M 0 0 
L 0 3.5 
" id="mee1930d322" style="stroke:#000000;stroke-width:0.8;"/>
      </defs>
      <g>
       <use style="stroke:#000000;stroke-width:0.8;" x="85.66121" xlink:href="#mee1930d322" y="228"/>
      </g>
     </g>
     <g id="text_1">
      <!-- $0$ -->
      <defs>
       <path d="M 42 31.640625 
C 42 37.75 41.90625 48.125 37.703125 56.109375 
C 34 63.109375 28.09375 65.59375 22.90625 65.59375 
C 18.09375 65.59375 12 63.40625 8.203125 56.203125 
C 4.203125 48.71875 3.796875 39.4375 3.796875 31.640625 
C 3.796875 25.953125 3.90625 17.28125 7 9.671875 
C 11.296875 -0.609375 19 -2 22.90625 -2 
C 27.5 -2 34.5 -0.109375 38.59375 9.375 
C 41.59375 16.28125 42 24.359375 42 31.640625 
z
M 22.90625 -0.40625 
C 16.5 -0.40625 12.703125 5.078125 11.296875 12.6875 
C 10.203125 18.5625 10.203125 27.15625 10.203125 32.75 
C 10.203125 40.4375 10.203125 46.828125 11.5 52.921875 
C 13.40625 61.390625 19 64 22.90625 64 
C 27 64 32.296875 61.296875 34.203125 53.125 
C 35.5 47.4375 35.59375 40.734375 35.59375 32.75 
C 35.59375 26.25 35.59375 18.265625 34.40625 12.375 
C 32.296875 1.484375 26.40625 -0.40625 22.90625 -0.40625 
z
" id="CMR17-48"/>
      </defs>
      <g transform="translate(81.533645 248.33795)scale(0.18 -0.18)">
       <use transform="scale(0.996264)" xlink:href="#CMR17-48"/>
      </g>
     </g>
    </g>
    <g id="xtick_2">
     <g id="line2d_2">
      <g>
       <use style="stroke:#000000;stroke-width:0.8;" x="151.895202" xlink:href="#mee1930d322" y="228"/>
      </g>
     </g>
     <g id="text_2">
      <!-- $2$ -->
      <defs>
       <path d="M 41.703125 15.453125 
L 39.90625 15.453125 
C 38.90625 8.375 38.09375 7.171875 37.703125 6.5625 
C 37.203125 5.765625 30 5.765625 28.59375 5.765625 
L 9.40625 5.765625 
C 13 9.671875 20 16.75 28.5 24.953125 
C 34.59375 30.734375 41.703125 37.53125 41.703125 47.421875 
C 41.703125 59.21875 32.296875 66 21.796875 66 
C 10.796875 66 4.09375 56.3125 4.09375 47.34375 
C 4.09375 43.4375 7 42.9375 8.203125 42.9375 
C 9.203125 42.9375 12.203125 43.546875 12.203125 47.03125 
C 12.203125 50.109375 9.59375 51 8.203125 51 
C 7.59375 51 7 50.90625 6.59375 50.703125 
C 8.5 59.21875 14.296875 63.40625 20.40625 63.40625 
C 29.09375 63.40625 34.796875 56.515625 34.796875 47.421875 
C 34.796875 38.734375 29.703125 31.25 24 24.75 
L 4.09375 2.28125 
L 4.09375 0 
L 39.296875 0 
z
" id="CMR17-50"/>
      </defs>
      <g transform="translate(147.767637 248.33795)scale(0.18 -0.18)">
       <use transform="scale(0.996264)" xlink:href="#CMR17-50"/>
      </g>
     </g>
    </g>
    <g id="xtick_3">
     <g id="line2d_3">
      <g>
       <use style="stroke:#000000;stroke-width:0.8;" x="218.129194" xlink:href="#mee1930d322" y="228"/>
      </g>
     </g>
     <g id="text_3">
      <!-- $4$ -->
      <defs>
       <path d="M 33.59375 64.40625 
C 33.59375 66.5 33.5 66.5 31.703125 66.5 
L 2 19.59375 
L 2 17 
L 27.796875 17 
L 27.796875 7.140625 
C 27.796875 3.5 27.59375 2.5 20.59375 2.5 
L 18.703125 2.5 
L 18.703125 0 
C 21.90625 0 27.296875 0 30.703125 0 
C 34.09375 0 39.5 0 42.703125 0 
L 42.703125 2.5 
L 40.796875 2.5 
C 33.796875 2.5 33.59375 3.5 33.59375 7.140625 
L 33.59375 17 
L 43.796875 17 
L 43.796875 19.59375 
L 33.59375 19.59375 
z
M 28.09375 57.859375 
L 28.09375 19.59375 
L 4 19.59375 
z
" id="CMR17-52"/>
      </defs>
      <g transform="translate(214.001629 248.33795)scale(0.18 -0.18)">
       <use transform="scale(0.996264)" xlink:href="#CMR17-52"/>
      </g>
     </g>
    </g>
    <g id="xtick_4">
     <g id="line2d_4">
      <g>
       <use style="stroke:#000000;stroke-width:0.8;" x="284.363186" xlink:href="#mee1930d322" y="228"/>
      </g>
     </g>
     <g id="text_4">
      <!-- $6$ -->
      <defs>
       <path d="M 10.59375 34 
C 10.59375 57.65625 21.796875 63 28.296875 63 
C 30.40625 63 35.5 62.640625 37.5 59 
C 35.90625 59 32.90625 59 32.90625 55.515625 
C 32.90625 52.828125 35.09375 51.921875 36.5 51.921875 
C 37.40625 51.921875 40.09375 52.3125 40.09375 55.625 
C 40.09375 61.78125 35.09375 65.296875 28.203125 65.296875 
C 16.296875 65.296875 3.796875 52.96875 3.796875 31 
C 3.796875 3.953125 15.09375 -2 23.09375 -2 
C 32.796875 -2 42 6.671875 42 20.046875 
C 42 32.515625 33.90625 41.59375 23.703125 41.59375 
C 17.59375 41.59375 13.09375 37.609375 10.59375 30.625 
z
M 23.09375 0.390625 
C 10.796875 0.390625 10.796875 18.75 10.796875 22.4375 
C 10.796875 29.625 14.203125 40 23.5 40 
C 25.203125 40 30.09375 40 33.40625 33.125 
C 35.203125 29.21875 35.203125 25.140625 35.203125 20.140625 
C 35.203125 14.75 35.203125 10.78125 33.09375 6.78125 
C 30.90625 2.671875 27.703125 0.390625 23.09375 0.390625 
z
" id="CMR17-54"/>
      </defs>
      <g transform="translate(280.235621 248.33795)scale(0.18 -0.18)">
       <use transform="scale(0.996264)" xlink:href="#CMR17-54"/>
      </g>
     </g>
    </g>
    <g id="xtick_5">
     <g id="line2d_5">
      <g>
       <use style="stroke:#000000;stroke-width:0.8;" x="350.597178" xlink:href="#mee1930d322" y="228"/>
      </g>
     </g>
     <g id="text_5">
      <!-- $8$ -->
      <defs>
       <path d="M 27.203125 35.375 
C 33.5 38.546875 39.90625 43.328125 39.90625 50.984375 
C 39.90625 60.015625 31.09375 65.296875 23 65.296875 
C 13.90625 65.296875 5.90625 58.734375 5.90625 49.6875 
C 5.90625 47.203125 6.5 42.921875 10.40625 39.140625 
C 11.40625 38.15625 15.59375 35.171875 18.296875 33.28125 
C 13.796875 30.984375 3.296875 25.53125 3.296875 14.59375 
C 3.296875 4.359375 13.09375 -2 22.796875 -2 
C 33.5 -2 42.5 5.65625 42.5 15.78125 
C 42.5 24.84375 36.40625 29.015625 32.40625 31.703125 
z
M 14.09375 44.09375 
C 13.296875 44.59375 9.296875 47.671875 9.296875 52.359375 
C 9.296875 58.421875 15.59375 63 22.796875 63 
C 30.703125 63 36.5 57.4375 36.5 50.96875 
C 36.5 41.703125 26.09375 36.421875 25.59375 36.421875 
C 25.5 36.421875 25.40625 36.421875 24.59375 37.03125 
z
M 32.5 23.734375 
C 34 22.640625 38.796875 19.375 38.796875 13.296875 
C 38.796875 5.953125 31.40625 0.390625 23 0.390625 
C 13.90625 0.390625 7 6.84375 7 14.6875 
C 7 22.546875 13.09375 29.09375 20 32.1875 
z
" id="CMR17-56"/>
      </defs>
      <g transform="translate(346.469613 248.33795)scale(0.18 -0.18)">
       <use transform="scale(0.996264)" xlink:href="#CMR17-56"/>
      </g>
     </g>
    </g>
    <g id="text_6">
     <!-- Time (s) -->
     <defs>
      <path d="M 63.296875 72 
L 3.40625 72 
L 1.90625 44.265625 
L 6.203125 44.265625 
C 6.90625 49.25 7.796875 53.046875 8.90625 56.234375 
C 11.5 63.515625 16.296875 67.3125 23.09375 67.3125 
C 26.40625 67.3125 27.796875 66.203125 27.796875 63.71875 
L 27.796875 12.28125 
L 27.796875 9.375 
C 27.796875 5.1875 26.90625 4.6875 18.796875 4.6875 
L 16.203125 4.6875 
L 16.203125 0 
L 50.5 0 
L 50.5 4.6875 
L 47.90625 4.6875 
C 39.90625 4.6875 39 5.1875 39 9.375 
L 39 12.28125 
L 39 63.71875 
C 39 66.203125 40.40625 67.3125 43.703125 67.3125 
C 49.796875 67.3125 54.703125 63.90625 57.203125 57.921875 
C 58.703125 54.25 59.703125 49.953125 60.5 44.265625 
L 64.796875 44.265625 
z
" id="Century_Schoolbook_L_Roman-84"/>
      <path d="M 20.59375 46 
L 1.796875 46 
L 1.796875 41.21875 
L 6.90625 41.21875 
C 10.59375 41.21875 11.203125 40.515625 11.203125 36.203125 
L 11.203125 12.296875 
L 11.203125 8.296875 
C 11.203125 4.296875 10.09375 3.59375 3.703125 3.59375 
L 3 3.59375 
L 3 0 
L 28.90625 0 
L 28.90625 3.59375 
L 28.203125 3.59375 
C 21.703125 3.59375 20.59375 4.28125 20.59375 8.21875 
L 20.59375 12.171875 
z
M 15.90625 71.578125 
C 12.703125 71.578125 10.09375 68.984375 10.09375 65.796875 
C 10.09375 62.703125 12.703125 60 15.796875 60 
C 19.09375 60 21.703125 62.59375 21.703125 65.796875 
C 21.703125 68.984375 19.09375 71.578125 15.90625 71.578125 
z
" id="Century_Schoolbook_L_Roman-105"/>
      <path d="M 20.09375 46 
L 2.296875 46 
L 2.296875 41.21875 
L 6.40625 41.21875 
C 10.09375 41.21875 10.703125 40.515625 10.703125 36.203125 
L 10.703125 12.296875 
L 10.703125 8.40625 
C 10.703125 4.296875 9.59375 3.59375 3.203125 3.59375 
L 2.796875 3.59375 
L 2.796875 0 
L 28 0 
L 28 3.59375 
L 27.59375 3.59375 
C 21.203125 3.59375 20.09375 4.296875 20.09375 8.390625 
L 20.09375 12.28125 
L 20.09375 26.453125 
C 20.09375 35.328125 25 41.921875 31.5 41.921875 
C 34.09375 41.921875 36.90625 40.515625 38.09375 38.625 
C 39.5 36.734375 40.09375 33.828125 40.09375 29.734375 
L 40.09375 12.28125 
L 40.09375 8.28125 
C 40.09375 4.296875 39 3.59375 32.5 3.59375 
L 32.09375 3.59375 
L 32.09375 0 
L 57.40625 0 
L 57.40625 3.59375 
L 57 3.59375 
C 50.59375 3.59375 49.5 4.296875 49.5 8.28125 
L 49.5 12.28125 
L 49.5 25.546875 
C 49.5 35.53125 54 41.921875 61 41.921875 
C 64.296875 41.921875 67 40.015625 68.296875 36.921875 
C 69.203125 34.734375 69.5 32.53125 69.5 28.640625 
L 69.5 12.28125 
L 69.5 8.28125 
C 69.5 4.296875 68.40625 3.59375 61.90625 3.59375 
L 61.5 3.59375 
L 61.5 0 
L 86.796875 0 
L 86.796875 3.59375 
L 86.40625 3.59375 
C 80 3.59375 78.90625 4.296875 78.90625 8.390625 
L 78.90625 12.28125 
L 78.90625 30.640625 
C 78.90625 36.828125 78.296875 38.921875 75.703125 42.3125 
C 72.796875 46.015625 68.703125 48 63.90625 48 
C 57.40625 48 52.59375 44.9375 48.296875 38.109375 
C 46.59375 44.046875 41.203125 48 34.5 48 
C 28.5 48 24 45.140625 20.09375 38.921875 
z
" id="Century_Schoolbook_L_Roman-109"/>
      <path d="M 46.5 23 
C 46.59375 37.8125 38.09375 48.28125 25.90625 48.28125 
C 13.09375 48.28125 3.5 37.25 3.5 22.34375 
C 3.5 8.4375 12.59375 -1 26.09375 -1 
C 35.59375 -1 42.40625 3.6875 46.5 13.1875 
L 43 15.09375 
C 38.90625 7.390625 34.703125 4.390625 28 4.390625 
C 22.90625 4.390625 19.203125 6.59375 16.59375 11 
C 14.796875 14 14 17.5 14.09375 23 
z
M 14.203125 27.296875 
C 14.203125 30.34375 14.59375 32.5 15.59375 35.25 
C 17.703125 41.140625 20.90625 44 25.703125 44 
C 31.796875 44 35.796875 38.78125 35.796875 30.921875 
C 35.796875 28.078125 34.90625 27.296875 31.703125 27.296875 
z
" id="Century_Schoolbook_L_Roman-101"/>
      <path d="M 27.90625 73.453125 
C 21.90625 69.765625 18.703125 67.171875 15.296875 63.171875 
C 7.703125 54.1875 3.59375 42.71875 3.59375 30.640625 
C 3.59375 19.265625 7.203125 8.578125 13.90625 -0.296875 
C 17.703125 -5.09375 21.09375 -8.078125 27.90625 -12.28125 
L 27.90625 -8.578125 
C 17.90625 0.203125 13.90625 11.484375 13.90625 30.640625 
C 13.90625 49.796875 17.90625 60.984375 27.90625 69.765625 
z
" id="Century_Schoolbook_L_Roman-40"/>
      <path d="M 39 48 
L 35.5 48 
L 32.59375 44.40625 
C 29 47.203125 25.40625 48.390625 20.40625 48.390625 
C 11.59375 48.390625 5.796875 42.625 5.796875 33.953125 
C 5.796875 30.078125 7.09375 26.78125 9.296875 24.8125 
C 11.59375 22.703125 13.90625 21.71875 19.90625 20.3125 
L 25.203125 19.125 
C 33.09375 17.234375 35.90625 15.234375 35.90625 11.265625 
C 35.90625 6.578125 31.796875 3.296875 25.90625 3.296875 
C 17.5 3.296875 11.5 8.765625 9.09375 18.875 
L 5.09375 18.875 
L 5.09375 0 
L 8.59375 0 
L 12.09375 3.90625 
C 16.203125 0.59375 20.796875 -1 25.796875 -1 
C 35.59375 -1 42.09375 5.078125 42.09375 14.34375 
C 42.09375 18.71875 40.703125 22.09375 37.90625 24.390625 
C 35.5 26.484375 33.5 27.28125 27.40625 28.5625 
L 22.40625 29.671875 
C 16.90625 30.859375 16.90625 30.859375 15.09375 31.859375 
C 12.90625 32.859375 11.59375 34.9375 11.59375 37.140625 
C 11.59375 41.109375 15.40625 44 20.90625 44 
C 24.703125 44 27.796875 42.703125 30.59375 40.015625 
C 32.796875 37.8125 33.90625 35.828125 35.5 31.234375 
L 39 31.234375 
z
" id="Century_Schoolbook_L_Roman-115"/>
      <path d="M 5.40625 -12.28125 
C 11.40625 -8.578125 14.59375 -5.984375 18 -1.890625 
C 25.59375 6.984375 29.703125 18.5625 29.703125 30.640625 
C 29.703125 42.015625 26.09375 52.703125 19.40625 61.484375 
C 15.59375 66.375 12.203125 69.359375 5.40625 73.453125 
L 5.40625 69.765625 
C 15.40625 60.984375 19.40625 49.796875 19.40625 30.640625 
C 19.40625 11.375 15.40625 0.203125 5.40625 -8.578125 
z
" id="Century_Schoolbook_L_Roman-41"/>
     </defs>
     <g transform="translate(217.07914 270.36577)scale(0.18 -0.18)">
      <use transform="translate(0 -0.29235)scale(0.996264)" xlink:href="#Century_Schoolbook_L_Roman-84"/>
      <use transform="translate(66.450031 -0.29235)scale(0.996264)" xlink:href="#Century_Schoolbook_L_Roman-105"/>
      <use transform="translate(97.831344 -0.29235)scale(0.996264)" xlink:href="#Century_Schoolbook_L_Roman-109"/>
      <use transform="translate(186.398251 -0.29235)scale(0.996264)" xlink:href="#Century_Schoolbook_L_Roman-101"/>
      <use transform="translate(263.906621 -0.29235)scale(0.996264)" xlink:href="#Century_Schoolbook_L_Roman-40"/>
      <use transform="translate(297.081851 -0.29235)scale(0.996264)" xlink:href="#Century_Schoolbook_L_Roman-115"/>
      <use transform="translate(343.207661 -0.29235)scale(0.996264)" xlink:href="#Century_Schoolbook_L_Roman-41"/>
     </g>
    </g>
   </g>
   <g id="matplotlib.axis_2">
    <g id="ytick_1">
     <g id="line2d_6">
      <defs>
       <path d="M 0 0 
L -3.5 0 
" id="m47ac01248f" style="stroke:#000000;stroke-width:0.8;"/>
      </defs>
      <g>
       <use style="stroke:#000000;stroke-width:0.8;" x="85.66121" xlink:href="#m47ac01248f" y="228"/>
      </g>
     </g>
     <g id="text_7">
      <!-- $-0.25$ -->
      <defs>
       <path d="M 65.90625 23 
C 67.59375 23 69.40625 23 69.40625 25 
C 69.40625 27 67.59375 27 65.90625 27 
L 11.796875 27 
C 10.09375 27 8.296875 27 8.296875 25 
C 8.296875 23 10.09375 23 11.796875 23 
z
" id="CMSY10-0"/>
       <path d="M 18.40625 4.796875 
C 18.40625 7.6875 16 9.671875 13.59375 9.671875 
C 10.703125 9.671875 8.703125 7.28125 8.703125 4.890625 
C 8.703125 2 11.09375 0 13.5 0 
C 16.40625 0 18.40625 2.390625 18.40625 4.796875 
z
" id="CMMI12-58"/>
       <path d="M 11.40625 57.6875 
C 12.40625 57.28125 16.5 56 20.703125 56 
C 30 56 35.09375 61.109375 38 64.0625 
C 38 64.953125 38 65.5 37.40625 65.5 
C 37.296875 65.5 37.09375 65.5 36.296875 65.046875 
C 32.796875 63.40625 28.703125 62.078125 23.703125 62.078125 
C 20.703125 62.078125 16.203125 62.484375 11.296875 64.671875 
C 10.203125 65.171875 10 65.171875 9.90625 65.171875 
C 9.40625 65.171875 9.296875 65.0625 9.296875 63.078125 
L 9.296875 34.421875 
C 9.296875 32.640625 9.296875 32.140625 10.296875 32.140625 
C 10.796875 32.140625 11 32.34375 11.5 33.03125 
C 14.703125 37.515625 19.09375 39.40625 24.09375 39.40625 
C 27.59375 39.40625 35.09375 37.21875 35.09375 20.140625 
C 35.09375 16.953125 35.09375 11.171875 32.09375 6.578125 
C 29.59375 2.484375 25.703125 0.390625 21.40625 0.390625 
C 14.796875 0.390625 8.09375 5 6.296875 12.71875 
C 6.703125 12.609375 7.5 12.421875 7.90625 12.421875 
C 9.203125 12.421875 11.703125 13.125 11.703125 16.21875 
C 11.703125 18.90625 9.796875 20 7.90625 20 
C 5.59375 20 4.09375 18.59375 4.09375 15.796875 
C 4.09375 7.09375 11 -2 21.59375 -2 
C 31.90625 -2 41.703125 6.875 41.703125 19.75 
C 41.703125 31.71875 33.90625 41 24.203125 41 
C 19.09375 41 14.796875 39.109375 11.40625 35.53125 
z
" id="CMR17-53"/>
      </defs>
      <g transform="translate(35 234.668975)scale(0.18 -0.18)">
       <use transform="translate(0 -0.031134)scale(0.996264)" xlink:href="#CMSY10-0"/>
       <use transform="translate(77.487468 -0.031134)scale(0.996264)" xlink:href="#CMR17-48"/>
       <use transform="translate(123.177945 -0.031134)scale(0.996264)" xlink:href="#CMMI12-58"/>
       <use transform="translate(150.275122 -0.031134)scale(0.996264)" xlink:href="#CMR17-50"/>
       <use transform="translate(195.965599 -0.031134)scale(0.996264)" xlink:href="#CMR17-53"/>
      </g>
     </g>
    </g>
    <g id="ytick_2">
     <g id="line2d_7">
      <g>
       <use style="stroke:#000000;stroke-width:0.8;" x="85.66121" xlink:href="#m47ac01248f" y="189.301188"/>
      </g>
     </g>
     <g id="text_8">
      <!-- $0.00$ -->
      <g transform="translate(49.00005 195.970163)scale(0.18 -0.18)">
       <use transform="scale(0.996264)" xlink:href="#CMR17-48"/>
       <use transform="translate(45.690477 0)scale(0.996264)" xlink:href="#CMMI12-58"/>
       <use transform="translate(72.787654 0)scale(0.996264)" xlink:href="#CMR17-48"/>
       <use transform="translate(118.478131 0)scale(0.996264)" xlink:href="#CMR17-48"/>
      </g>
     </g>
    </g>
    <g id="ytick_3">
     <g id="line2d_8">
      <g>
       <use style="stroke:#000000;stroke-width:0.8;" x="85.66121" xlink:href="#m47ac01248f" y="150.602376"/>
      </g>
     </g>
     <g id="text_9">
      <!-- $0.25$ -->
      <g transform="translate(49.00005 157.271351)scale(0.18 -0.18)">
       <use transform="scale(0.996264)" xlink:href="#CMR17-48"/>
       <use transform="translate(45.690477 0)scale(0.996264)" xlink:href="#CMMI12-58"/>
       <use transform="translate(72.787654 0)scale(0.996264)" xlink:href="#CMR17-50"/>
       <use transform="translate(118.478131 0)scale(0.996264)" xlink:href="#CMR17-53"/>
      </g>
     </g>
    </g>
    <g id="ytick_4">
     <g id="line2d_9">
      <g>
       <use style="stroke:#000000;stroke-width:0.8;" x="85.66121" xlink:href="#m47ac01248f" y="111.903564"/>
      </g>
     </g>
     <g id="text_10">
      <!-- $0.50$ -->
      <g transform="translate(49.00005 118.572539)scale(0.18 -0.18)">
       <use transform="scale(0.996264)" xlink:href="#CMR17-48"/>
       <use transform="translate(45.690477 0)scale(0.996264)" xlink:href="#CMMI12-58"/>
       <use transform="translate(72.787654 0)scale(0.996264)" xlink:href="#CMR17-53"/>
       <use transform="translate(118.478131 0)scale(0.996264)" xlink:href="#CMR17-48"/>
      </g>
     </g>
    </g>
    <g id="ytick_5">
     <g id="line2d_10">
      <g>
       <use style="stroke:#000000;stroke-width:0.8;" x="85.66121" xlink:href="#m47ac01248f" y="73.204752"/>
      </g>
     </g>
     <g id="text_11">
      <!-- $0.75$ -->
      <defs>
       <path d="M 45.09375 61.578125 
L 45.09375 63.765625 
L 21.59375 63.765625 
C 9.90625 63.765625 9.703125 65.078125 9.296875 67 
L 7.5 67 
L 4.59375 48.34375 
L 6.40625 48.34375 
C 6.703125 50.234375 7.40625 55.3125 8.59375 57.203125 
C 9.203125 58 16.59375 58 18.296875 58 
L 40.296875 58 
L 29.203125 41.578125 
C 21.796875 30.53125 16.703125 15.609375 16.703125 2.578125 
C 16.703125 1.390625 16.703125 -2 20.296875 -2 
C 23.90625 -2 23.90625 1.390625 23.90625 2.671875 
L 23.90625 7.265625 
C 23.90625 23.5625 26.703125 34.3125 31.296875 41.1875 
z
" id="CMR17-55"/>
      </defs>
      <g transform="translate(49.00005 79.873727)scale(0.18 -0.18)">
       <use transform="scale(0.996264)" xlink:href="#CMR17-48"/>
       <use transform="translate(45.690477 0)scale(0.996264)" xlink:href="#CMMI12-58"/>
       <use transform="translate(72.787654 0)scale(0.996264)" xlink:href="#CMR17-55"/>
       <use transform="translate(118.478131 0)scale(0.996264)" xlink:href="#CMR17-53"/>
      </g>
     </g>
    </g>
    <g id="ytick_6">
     <g id="line2d_11">
      <g>
       <use style="stroke:#000000;stroke-width:0.8;" x="85.66121" xlink:href="#m47ac01248f" y="34.50594"/>
      </g>
     </g>
     <g id="text_12">
      <!-- $1.00$ -->
      <defs>
       <path d="M 26.59375 63.40625 
C 26.59375 65.5 26.5 65.5 25.09375 65.5 
C 21.203125 61.1875 15.296875 59.796875 9.703125 59.796875 
C 9.40625 59.796875 8.90625 59.796875 8.796875 59.5 
C 8.703125 59.296875 8.703125 59.09375 8.703125 57 
C 11.796875 57 17 57.59375 21 59.984375 
L 21 7.203125 
C 21 3.6875 20.796875 2.5 12.203125 2.5 
L 9.203125 2.5 
L 9.203125 0 
C 14 0 19 0 23.796875 0 
C 28.59375 0 33.59375 0 38.40625 0 
L 38.40625 2.5 
L 35.40625 2.5 
C 26.796875 2.5 26.59375 3.59375 26.59375 7.15625 
z
" id="CMR17-49"/>
      </defs>
      <g transform="translate(49.00005 41.174915)scale(0.18 -0.18)">
       <use transform="scale(0.996264)" xlink:href="#CMR17-49"/>
       <use transform="translate(45.690477 0)scale(0.996264)" xlink:href="#CMMI12-58"/>
       <use transform="translate(72.787654 0)scale(0.996264)" xlink:href="#CMR17-48"/>
       <use transform="translate(118.478131 0)scale(0.996264)" xlink:href="#CMR17-48"/>
      </g>
     </g>
    </g>
    <g id="text_13">
     <!-- Input Force (N) -->
     <defs>
      <path d="M 26 59.734375 
L 26 62.609375 
C 26 66.8125 26.90625 67.3125 34.90625 67.3125 
L 36.90625 67.3125 
L 36.90625 72 
L 3.796875 72 
L 3.796875 67.3125 
L 5.796875 67.3125 
C 13.90625 67.3125 14.796875 66.8125 14.796875 62.609375 
L 14.796875 59.734375 
L 14.796875 12.28125 
L 14.796875 9.375 
C 14.796875 5.1875 13.90625 4.6875 5.796875 4.6875 
L 3.796875 4.6875 
L 3.796875 0 
L 36.90625 0 
L 36.90625 4.6875 
L 34.90625 4.6875 
C 26.90625 4.6875 26 5.1875 26 9.375 
L 26 12.28125 
z
" id="Century_Schoolbook_L_Roman-73"/>
      <path d="M 20 46 
L 2.703125 46 
L 2.703125 41.21875 
L 6.296875 41.21875 
C 10 41.21875 10.59375 40.515625 10.59375 36.203125 
L 10.59375 12.296875 
L 10.59375 8.296875 
C 10.59375 4.296875 9.5 3.59375 3.09375 3.59375 
L 2.703125 3.59375 
L 2.703125 0 
L 28 0 
L 28 3.59375 
L 27.59375 3.59375 
C 21.09375 3.59375 20 4.296875 20 8.28125 
L 20 12.28125 
L 20 22.65625 
C 20 27.546875 20.703125 32.03125 21.796875 34.328125 
C 23.90625 38.828125 28.40625 41.921875 32.703125 41.921875 
C 35.296875 41.921875 38.296875 40.421875 39.796875 38.421875 
C 41.296875 36.328125 42 33.234375 42 28.4375 
L 42 12.28125 
L 42 8.28125 
C 42 4.296875 40.90625 3.59375 34.40625 3.59375 
L 34 3.59375 
L 34 0 
L 59.296875 0 
L 59.296875 3.59375 
L 58.90625 3.59375 
C 52.5 3.59375 51.40625 4.296875 51.40625 8.28125 
L 51.40625 12.28125 
L 51.40625 27.953125 
C 51.40625 35.125 51.09375 36.921875 49.296875 40.328125 
C 46.796875 45.109375 41.703125 48 35.796875 48 
C 29.40625 48 24.40625 45.046875 20 38.515625 
z
" id="Century_Schoolbook_L_Roman-110"/>
      <path d="M 20.09375 46 
L 2.796875 46 
L 2.796875 41.21875 
L 6.40625 41.21875 
C 10.09375 41.21875 10.703125 40.515625 10.703125 36.21875 
L 10.703125 -7.75 
L 10.703125 -11.71875 
C 10.703125 -15.71875 9.59375 -16.40625 3.203125 -16.40625 
L 2.796875 -16.40625 
L 2.796875 -20 
L 28.796875 -20 
L 28.796875 -16.40625 
L 27.703125 -16.40625 
C 21.203125 -16.40625 20.09375 -15.71875 20.09375 -11.734375 
L 20.09375 -7.75 
L 20.09375 6.6875 
C 23.40625 0.90625 27.203125 -1.390625 33.296875 -1.390625 
C 44.90625 -1.390625 53.5 9.265625 53.5 23.5 
C 53.5 37.265625 44.90625 48 33.90625 48 
C 27.703125 48 23.59375 45.4375 20.09375 39.515625 
z
M 32.09375 42.609375 
C 39 42.609375 43 35.75 43 24.09375 
C 43 11.265625 38.90625 4 31.796875 4 
C 24.703125 4 20 11.375 20 22.8125 
C 20 35.140625 24.5 42.609375 32.09375 42.609375 
z
" id="Century_Schoolbook_L_Roman-112"/>
      <path d="M 41.203125 0 
L 59.40625 0 
L 59.40625 4.703125 
L 56.90625 4.703125 
C 51.40625 4.703125 50.59375 5.59375 50.59375 11.953125 
L 50.59375 46.78125 
L 31.796875 46.78125 
L 31.796875 42 
L 36.90625 42 
C 40.59375 42 41.203125 41.296875 41.203125 36.953125 
L 41.203125 24.5625 
C 41.203125 18.8125 40.59375 15.484375 39.09375 12.15625 
C 37 7.71875 33 5.09375 28.09375 5.09375 
C 25 5.09375 22.40625 6.1875 21.09375 8.171875 
C 19.796875 10.046875 19.59375 11.046875 19.59375 16.5 
L 19.59375 46.78125 
L 2.09375 46.78125 
L 2.09375 42 
L 5.90625 42 
C 9.59375 42 10.203125 41.296875 10.203125 36.953125 
L 10.203125 15.21875 
C 10.203125 10.078125 10.59375 7.765625 12.09375 5.453125 
C 14.796875 1.3125 19.59375 -1 25.59375 -1 
C 32.203125 -1 36.796875 1.71875 41.203125 8.125 
z
" id="Century_Schoolbook_L_Roman-117"/>
      <path d="M 19.40625 47 
L 19.40625 67 
L 15.296875 67 
C 14.296875 53.875 9.90625 47.1875 1.796875 46.59375 
L 1.796875 42.703125 
L 10 42.703125 
L 10 17.265625 
C 10 10.28125 10.203125 7.78125 11.203125 5.484375 
C 12.796875 1.296875 16.796875 -1 22.59375 -1 
C 26.5 -1 29.90625 0.203125 32.203125 2.390625 
C 35.5 5.59375 37.40625 10.875 37.40625 16.375 
C 37.40625 16.96875 37.40625 17.671875 37.296875 18.671875 
L 33.09375 18.671875 
C 32.796875 9.6875 30.203125 5.09375 25.296875 5.09375 
C 23 5.09375 21 6.28125 20.296875 7.984375 
C 19.703125 9.375 19.40625 11.875 19.40625 15.46875 
L 19.40625 42.703125 
L 34.09375 42.703125 
L 34.09375 47 
z
" id="Century_Schoolbook_L_Roman-116"/>
      <path d="M 62.40625 72 
L 2.90625 72 
L 2.90625 67.3125 
L 4.703125 67.3125 
C 12.796875 67.3125 13.703125 66.8125 13.703125 62.609375 
L 13.703125 59.734375 
L 13.703125 12.28125 
L 13.703125 9.375 
C 13.703125 5.1875 12.796875 4.6875 4.703125 4.6875 
L 2.90625 4.6875 
L 2.90625 0 
L 37.203125 0 
L 37.203125 4.6875 
L 33.90625 4.6875 
C 25.796875 4.6875 24.90625 5.1875 24.90625 9.390625 
L 24.90625 12.296875 
L 24.90625 35 
L 26.90625 35 
C 33.09375 35 35.5 34.375 37.59375 32.234375 
C 40.09375 29.578125 41.09375 26.296875 41.296875 20.265625 
L 46 20.265625 
L 46 53 
L 41.296875 53 
C 40.796875 43.46875 36.796875 39.6875 27.296875 39.6875 
L 24.90625 39.6875 
L 24.90625 62.328125 
C 24.90625 66.609375 25.796875 67.3125 31.203125 67.3125 
L 35.796875 67.3125 
C 52.296875 67.3125 56.59375 63.5 59.40625 46.390625 
L 63.796875 46.390625 
z
" id="Century_Schoolbook_L_Roman-70"/>
      <path d="M 25.203125 48.28125 
C 13 48.28125 3.40625 37.453125 3.40625 23.546875 
C 3.40625 9.9375 13 -1 25 -1 
C 37 -1 46.59375 9.9375 46.59375 23.640625 
C 46.59375 37.25 37 48.28125 25.203125 48.28125 
z
M 25.203125 44 
C 32.203125 44 36.09375 36.75 36.09375 23.640625 
C 36.09375 10.453125 32.203125 3.296875 25 3.296875 
C 17.796875 3.296875 13.90625 10.453125 13.90625 23.546875 
C 13.90625 37.046875 17.703125 44 25.203125 44 
z
" id="Century_Schoolbook_L_Roman-111"/>
      <path d="M 19.796875 46 
L 2.09375 46 
L 2.09375 41.21875 
L 6.203125 41.21875 
C 9.90625 41.21875 10.5 40.515625 10.5 36.203125 
L 10.5 12.296875 
L 10.5 8.296875 
C 10.5 4.296875 9.40625 3.59375 2.90625 3.59375 
L 2.5 3.59375 
L 2.5 0 
L 29.203125 0 
L 29.203125 3.59375 
L 27.296875 3.59375 
C 20.90625 3.59375 19.796875 4.296875 19.796875 8.296875 
L 19.796875 12.296875 
L 19.796875 13.296875 
C 19.796875 20.8125 21.203125 28.40625 23.703125 34.109375 
C 26.09375 39.703125 29.5 42.8125 33.703125 43.3125 
C 32.296875 41.703125 31.90625 40.6875 31.90625 38.765625 
C 31.90625 35.546875 34.203125 33.234375 37.40625 33.234375 
C 41 33.234375 43.5 35.9375 43.5 40.015625 
C 43.5 44.8125 40.09375 48 34.796875 48 
C 28.5 48 23 42.921875 19.796875 34.140625 
z
" id="Century_Schoolbook_L_Roman-114"/>
      <path d="M 38.703125 15.125 
C 35.5 7.96875 32.09375 5.09375 26.90625 5.09375 
C 18.90625 5.09375 13.90625 12.328125 13.90625 23.9375 
C 13.90625 35.953125 18.796875 44 26.203125 44 
C 29.203125 44 31.796875 42.59375 31.796875 41.015625 
C 31.796875 40.71875 31.59375 40.421875 31.203125 39.8125 
C 29.59375 37.9375 29.203125 36.9375 29.203125 35.265625 
C 29.203125 31.984375 31.703125 29.703125 35.203125 29.703125 
C 38.703125 29.703125 41.296875 32.484375 41.296875 36.453125 
C 41.296875 43.109375 34.59375 48.28125 25.703125 48.28125 
C 12.703125 48.28125 3.40625 37.65625 3.40625 22.84375 
C 3.40625 8.734375 11.90625 -1 24.296875 -1 
C 33.203125 -1 38.296875 3.078125 42.59375 13.625 
z
" id="Century_Schoolbook_L_Roman-99"/>
      <path d="M 22.5 72 
L 1.90625 72 
L 1.90625 67.3125 
L 4.40625 67.3125 
C 9.5 67.3125 11.796875 66.5 13.59375 64.015625 
L 13.59375 21.5 
C 13.59375 7.78125 11.59375 4.890625 2 4.890625 
L 2 0 
L 30.5 0 
L 30.5 4.890625 
C 21 4.890625 19 7.796875 19 21.5 
L 19 58.640625 
L 63.59375 -1.6875 
L 67.796875 -1.6875 
L 67.796875 50.59375 
C 67.796875 64.390625 69.796875 67.3125 79.40625 67.3125 
L 79.40625 72 
L 50.90625 72 
L 50.90625 67.3125 
C 60.40625 67.3125 62.40625 64.40625 62.40625 50.625 
L 62.40625 19.046875 
z
" id="Century_Schoolbook_L_Roman-78"/>
     </defs>
     <g transform="translate(26.31013 185.91036)rotate(-90)scale(0.18 -0.18)">
      <use transform="translate(0 -1.570628)scale(0.996264)" xlink:href="#Century_Schoolbook_L_Roman-73"/>
      <use transform="translate(40.547425 -1.570628)scale(0.996264)" xlink:href="#Century_Schoolbook_L_Roman-110"/>
      <use transform="translate(101.419056 -1.570628)scale(0.996264)" xlink:href="#Century_Schoolbook_L_Roman-112"/>
      <use transform="translate(158.604543 -1.570628)scale(0.996264)" xlink:href="#Century_Schoolbook_L_Roman-117"/>
      <use transform="translate(219.476174 -1.570628)scale(0.996264)" xlink:href="#Century_Schoolbook_L_Roman-116"/>
      <use transform="translate(285.92505 -1.570628)scale(0.996264)" xlink:href="#Century_Schoolbook_L_Roman-70"/>
      <use transform="translate(346.896359 -1.570628)scale(0.996264)" xlink:href="#Century_Schoolbook_L_Roman-111"/>
      <use transform="translate(396.709559 -1.570628)scale(0.996264)" xlink:href="#Century_Schoolbook_L_Roman-114"/>
      <use transform="translate(440.943128 -1.570628)scale(0.996264)" xlink:href="#Century_Schoolbook_L_Roman-99"/>
      <use transform="translate(485.176696 -1.570628)scale(0.996264)" xlink:href="#Century_Schoolbook_L_Roman-101"/>
      <use transform="translate(562.685066 -1.570628)scale(0.996264)" xlink:href="#Century_Schoolbook_L_Roman-40"/>
      <use transform="translate(595.860296 -1.570628)scale(0.996264)" xlink:href="#Century_Schoolbook_L_Roman-78"/>
      <use transform="translate(677.05481 -1.570628)scale(0.996264)" xlink:href="#Century_Schoolbook_L_Roman-41"/>
     </g>
    </g>
   </g>
   <g id="line2d_12">
    <path clip-path="url(#pbc36a62597)" d="M 85.66121 34.50594 
L 94.271629 34.505978 
L 94.933969 117.543083 
L 95.265139 139.880246 
L 95.927479 163.169809 
L 96.589819 177.839076 
L 97.252159 187.439342 
L 97.914499 195.131375 
L 98.245668 198.004766 
L 98.908008 204.733469 
L 99.901518 212.072302 
L 101.226198 217.995514 
L 102.550878 221.365773 
L 103.875558 223.453844 
L 104.206728 223.610476 
L 104.537898 224.09804 
L 104.869068 224.106562 
L 105.200238 224.001058 
L 105.531408 224.565336 
L 105.862578 224.031602 
L 106.193748 224.480546 
L 106.524917 223.93354 
L 106.856087 224.423144 
L 107.849597 223.962279 
L 108.180767 224.084622 
L 108.511937 223.387842 
L 108.843107 223.148059 
L 109.174277 223.085704 
L 109.505447 222.814059 
L 109.836617 222.309206 
L 110.167787 222.307222 
L 110.498957 221.443882 
L 110.830127 221.599379 
L 111.161297 221.179252 
L 111.492467 220.568306 
L 111.823637 220.28335 
L 112.154807 220.158491 
L 113.148317 218.410231 
L 113.479487 218.396834 
L 114.141827 217.37722 
L 114.472997 217.275056 
L 115.466506 215.574473 
L 116.460016 214.469871 
L 116.791186 213.794832 
L 117.453526 212.938033 
L 117.784696 212.863181 
L 118.115866 212.187257 
L 118.778206 211.467154 
L 119.109376 210.771899 
L 119.440546 210.591161 
L 119.771716 210.017152 
L 120.102886 209.924964 
L 120.434056 209.131876 
L 120.765226 208.76766 
L 121.096396 208.617889 
L 121.427566 208.089116 
L 121.758736 208.107557 
L 122.089906 207.244538 
L 122.752246 206.920179 
L 123.083415 206.204055 
L 123.414585 206.169651 
L 123.745755 205.57893 
L 124.076925 205.680864 
L 124.408095 205.136712 
L 124.739265 205.044843 
L 125.070435 204.434557 
L 125.732775 204.221543 
L 126.063945 203.90355 
L 126.395115 203.216881 
L 126.726285 202.890823 
L 127.057455 202.953402 
L 128.050965 202.207955 
L 128.382135 201.97209 
L 128.713305 201.8866 
L 129.044475 201.431701 
L 129.375645 201.492531 
L 129.706815 201.371406 
L 130.369155 200.84354 
L 131.031495 200.841906 
L 131.362664 200.304399 
L 131.693834 200.349069 
L 132.356174 200.062583 
L 133.018514 199.680166 
L 133.349684 199.950189 
L 133.680854 199.262266 
L 134.012024 199.571154 
L 134.343194 199.151121 
L 134.674364 199.369109 
L 135.336704 198.96637 
L 135.667874 199.279205 
L 135.999044 198.656441 
L 136.330214 199.03018 
L 136.661384 198.898768 
L 136.992554 198.568212 
L 137.323724 198.602582 
L 137.654894 198.778555 
L 137.986064 198.651977 
L 138.317234 198.265205 
L 138.648404 198.540212 
L 139.310744 198.317807 
L 139.973083 198.209307 
L 140.304253 198.404899 
L 141.297763 198.087264 
L 141.628933 198.327797 
L 141.960103 198.151583 
L 142.291273 198.324574 
L 142.622443 197.908197 
L 142.953613 198.203436 
L 143.284783 197.850994 
L 143.615953 197.690946 
L 143.947123 198.326517 
L 144.278293 197.934584 
L 144.609463 198.177834 
L 144.940633 198.076215 
L 145.271803 197.826754 
L 145.602973 197.888407 
L 145.934143 197.742151 
L 146.265313 197.885736 
L 146.596483 198.159211 
L 146.927653 198.12081 
L 147.258823 197.845239 
L 147.589993 197.955835 
L 147.921162 197.751636 
L 148.252332 198.129466 
L 148.583502 197.829269 
L 148.914672 197.910307 
L 149.577012 197.643989 
L 149.908182 197.83784 
L 150.239352 197.888777 
L 150.570522 197.457947 
L 150.901692 197.972365 
L 151.232862 197.928386 
L 151.564032 197.45026 
L 151.895202 197.701021 
L 152.226372 197.538145 
L 152.557542 197.659148 
L 152.888712 197.503088 
L 153.219882 197.632009 
L 153.551052 197.219323 
L 154.213392 197.537374 
L 154.544562 197.557472 
L 154.875732 197.348353 
L 155.206902 197.594163 
L 155.538072 197.025426 
L 155.869242 197.184584 
L 156.531581 197.21498 
L 156.862751 197.122593 
L 157.193921 196.810578 
L 157.525091 197.084382 
L 158.518601 196.71587 
L 158.849771 196.836104 
L 159.180941 196.359163 
L 159.512111 196.60784 
L 159.843281 196.328948 
L 160.174451 196.425065 
L 160.505621 196.178774 
L 160.836791 196.435007 
L 161.167961 196.248479 
L 161.499131 195.875398 
L 162.161471 195.763681 
L 162.492641 195.663165 
L 162.823811 195.993753 
L 163.154981 195.594607 
L 163.486151 195.598841 
L 163.817321 195.244408 
L 164.148491 195.224024 
L 164.47966 195.317235 
L 165.142 194.912295 
L 165.47317 194.902503 
L 165.80434 194.633911 
L 167.12902 194.555513 
L 167.46019 193.953619 
L 168.12253 193.994672 
L 168.4537 193.395759 
L 168.78487 193.911699 
L 169.77838 193.118193 
L 170.10955 193.356764 
L 170.44072 192.764508 
L 170.77189 192.759979 
L 171.10306 192.88798 
L 172.09657 192.42172 
L 172.42774 192.359164 
L 172.758909 191.950219 
L 173.421249 191.973704 
L 173.752419 191.527339 
L 174.083589 191.831999 
L 174.414759 191.249219 
L 174.745929 191.001561 
L 175.077099 191.55382 
L 175.739439 190.652995 
L 176.070609 190.412721 
L 176.401779 190.647496 
L 176.732949 190.640768 
L 177.064119 190.129466 
L 177.395289 190.257695 
L 177.726459 190.200496 
L 178.388799 189.659169 
L 178.719969 189.459602 
L 179.051139 189.738349 
L 179.382309 189.603155 
L 179.713479 189.619653 
L 180.044649 189.150919 
L 180.706989 188.927835 
L 181.038158 189.074168 
L 181.700498 188.615092 
L 182.031668 188.669187 
L 182.362838 188.386145 
L 183.025178 188.154501 
L 183.356348 188.213531 
L 183.687518 187.784982 
L 184.018688 188.246311 
L 184.349858 187.914929 
L 184.681028 188.165085 
L 185.012198 187.401594 
L 185.343368 187.858001 
L 185.674538 187.579694 
L 186.005708 187.660437 
L 186.336878 187.451494 
L 186.999218 187.547052 
L 187.330388 187.29296 
L 187.661558 187.191079 
L 187.992728 187.330043 
L 188.655068 187.064916 
L 188.986238 187.200263 
L 189.317407 186.918009 
L 190.310917 186.936564 
L 190.642087 187.193329 
L 190.973257 186.904382 
L 191.966767 187.069072 
L 192.297937 186.843654 
L 192.960277 187.125764 
L 193.291447 186.771574 
L 193.622617 187.08362 
L 194.284957 187.005766 
L 194.616127 187.5086 
L 194.947297 187.081928 
L 195.278467 186.938553 
L 195.609637 187.364261 
L 195.940807 187.140082 
L 196.603147 187.474647 
L 196.934317 187.341711 
L 197.596656 187.767236 
L 197.927826 187.405275 
L 198.258996 187.737477 
L 198.921336 187.796059 
L 199.252506 187.909217 
L 199.583676 188.242129 
L 199.914846 187.79411 
L 200.246016 188.238284 
L 200.577186 188.157613 
L 200.908356 188.397459 
L 201.239526 188.341622 
L 201.570696 188.403361 
L 201.901866 188.911327 
L 202.233036 189.024097 
L 202.564206 188.696326 
L 202.895376 188.81382 
L 203.226546 189.201538 
L 203.557716 188.746017 
L 203.888886 189.510958 
L 204.220056 189.2452 
L 204.882396 189.633324 
L 205.213566 189.544971 
L 205.544736 189.801194 
L 205.875905 189.781066 
L 206.538245 190.31583 
L 206.869415 190.167429 
L 207.200585 190.261016 
L 207.862925 190.799599 
L 208.194095 190.312713 
L 208.525265 191.011157 
L 208.856435 191.00115 
L 209.187605 190.840753 
L 209.518775 191.007215 
L 209.849945 191.405658 
L 210.181115 191.404176 
L 210.512285 191.515436 
L 210.843455 191.819893 
L 211.174625 191.551133 
L 211.505795 191.582383 
L 211.836965 191.979008 
L 212.168135 191.81769 
L 212.499305 191.811012 
L 212.830475 192.331174 
L 213.492815 191.894768 
L 213.823985 192.542558 
L 214.155154 192.645497 
L 214.486324 192.495661 
L 214.817494 192.73637 
L 215.148664 192.812616 
L 215.811004 192.701889 
L 216.142174 193.216282 
L 216.473344 192.767686 
L 216.804514 193.121497 
L 217.135684 193.24998 
L 217.466854 192.916521 
L 217.798024 193.483155 
L 218.129194 193.505076 
L 218.791534 193.303472 
L 219.122704 193.450121 
L 219.453874 193.407705 
L 219.785044 193.548744 
L 220.116214 193.479926 
L 220.447384 193.6252 
L 220.778554 193.948483 
L 221.109724 193.617959 
L 221.440894 193.758674 
L 221.772064 193.541584 
L 222.103234 193.485569 
L 222.434403 194.070514 
L 222.765573 193.773984 
L 223.096743 193.94964 
L 223.759083 193.810096 
L 224.090253 193.545338 
L 224.421423 194.065447 
L 224.752593 193.856179 
L 225.083763 193.439931 
L 225.414933 193.770063 
L 226.077273 193.528672 
L 226.408443 193.939992 
L 226.739613 193.620843 
L 227.733123 193.588808 
L 228.064293 193.348803 
L 228.395463 193.526603 
L 228.726633 193.491134 
L 229.057803 193.147124 
L 229.388973 193.094613 
L 229.720143 193.261371 
L 230.051313 193.157854 
L 230.382483 193.213911 
L 231.044822 192.801759 
L 231.707162 192.876946 
L 232.038332 192.794675 
L 232.369502 192.530974 
L 233.031842 192.448154 
L 233.363012 192.336813 
L 233.694182 192.44565 
L 234.356522 192.108163 
L 234.687692 192.07764 
L 235.018862 191.914735 
L 235.350032 191.944454 
L 235.681202 191.602101 
L 236.012372 191.787911 
L 236.343542 191.242375 
L 236.674712 191.531873 
L 237.005882 191.359149 
L 237.337052 191.46028 
L 238.330562 190.83449 
L 238.661732 190.86116 
L 239.324071 190.423625 
L 239.655241 190.279007 
L 240.317581 190.270533 
L 240.648751 189.99751 
L 240.979921 190.048834 
L 242.304601 189.451628 
L 243.298111 189.190047 
L 243.629281 189.283543 
L 243.960451 189.069958 
L 244.291621 188.630644 
L 244.622791 188.814902 
L 244.953961 188.421974 
L 245.616301 188.313476 
L 245.947471 188.630777 
L 246.278641 188.129896 
L 246.609811 188.069525 
L 246.940981 188.132192 
L 247.60332 187.547149 
L 247.93449 187.782234 
L 248.26566 187.793505 
L 248.928 187.427314 
L 249.25917 187.571937 
L 249.59034 187.10471 
L 249.92151 187.34269 
L 250.25268 187.127042 
L 250.58385 187.30223 
L 250.91502 186.843756 
L 251.24619 186.828744 
L 251.57736 187.029145 
L 251.90853 186.639504 
L 252.2397 186.934528 
L 252.57087 187.015776 
L 252.90204 186.530657 
L 253.23321 186.380713 
L 253.56438 186.703246 
L 253.89555 186.406656 
L 254.22672 186.629844 
L 254.55789 186.408879 
L 254.88906 186.467216 
L 255.220229 186.266753 
L 255.551399 186.617895 
L 255.882569 186.581688 
L 256.213739 186.355508 
L 256.876079 186.510008 
L 257.207249 185.881823 
L 257.538419 186.423129 
L 257.869589 186.347 
L 258.200759 186.978084 
L 258.531929 186.415177 
L 258.863099 186.582015 
L 259.525439 186.390494 
L 259.856609 186.676139 
L 260.187779 186.57465 
L 260.518949 186.822626 
L 260.850119 186.447801 
L 261.512459 186.884205 
L 262.174799 186.908193 
L 262.505969 186.951465 
L 262.837139 186.751081 
L 263.168309 187.420172 
L 263.499478 186.923197 
L 263.830648 187.326186 
L 264.161818 187.133447 
L 264.492988 187.290107 
L 264.824158 187.698487 
L 265.155328 187.478102 
L 265.486498 187.70671 
L 265.817668 187.594498 
L 266.480008 187.960762 
L 266.811178 187.888953 
L 267.473518 188.282125 
L 268.135858 188.586176 
L 268.467028 188.462172 
L 269.129368 188.898719 
L 269.460538 188.780096 
L 269.791708 188.787219 
L 270.122878 189.322185 
L 270.454048 189.185006 
L 270.785218 189.387127 
L 271.116388 189.345511 
L 271.447558 189.577114 
L 272.109897 189.792779 
L 272.441067 189.995309 
L 272.772237 189.980822 
L 273.434577 190.422479 
L 273.765747 190.303747 
L 274.096917 190.549286 
L 274.428087 190.303667 
L 274.759257 190.875084 
L 275.421597 191.12039 
L 275.752767 191.007994 
L 276.083937 191.290208 
L 276.415107 190.737428 
L 276.746277 191.426079 
L 277.077447 191.393688 
L 277.408617 191.699112 
L 277.739787 191.576724 
L 278.070957 192.090978 
L 278.402127 192.163323 
L 278.733297 191.753165 
L 279.395637 192.338792 
L 279.726807 192.198734 
L 280.057976 192.596709 
L 280.389146 192.421102 
L 280.720316 192.876669 
L 281.051486 192.437205 
L 281.713826 192.885425 
L 282.044996 192.920226 
L 282.707336 193.163681 
L 283.038506 192.98311 
L 283.369676 193.350863 
L 283.700846 193.123277 
L 284.032016 193.298461 
L 284.363186 193.346496 
L 284.694356 193.192405 
L 285.025526 193.386242 
L 285.356696 193.715916 
L 285.687866 193.438889 
L 286.681376 193.635769 
L 287.012546 193.886007 
L 287.343716 193.337633 
L 287.674886 193.739592 
L 288.006056 193.516027 
L 288.337225 193.830515 
L 289.330735 193.716804 
L 290.324245 193.774264 
L 290.655415 193.656304 
L 291.317755 193.802224 
L 291.648925 193.464863 
L 291.980095 193.631633 
L 292.642435 193.472863 
L 292.973605 193.667624 
L 293.304775 193.657315 
L 293.635945 193.240949 
L 293.967115 193.186734 
L 294.298285 193.406122 
L 294.629455 193.211942 
L 295.291795 193.377101 
L 295.954135 192.933131 
L 296.285305 193.035472 
L 296.616474 192.811341 
L 296.947644 192.833826 
L 297.609984 192.47391 
L 297.941154 192.774686 
L 298.272324 192.734776 
L 298.603494 192.184567 
L 298.934664 192.677475 
L 299.265834 192.325812 
L 299.928174 191.957122 
L 300.259344 192.158399 
L 300.921684 191.851294 
L 301.915194 191.488529 
L 302.246364 191.29704 
L 302.577534 191.477903 
L 302.908704 191.192877 
L 303.239874 191.245003 
L 303.571044 190.767282 
L 303.902214 190.883876 
L 304.233384 190.524821 
L 304.564554 190.625246 
L 304.895723 190.464001 
L 305.226893 190.501973 
L 305.558063 190.013745 
L 305.889233 190.209757 
L 306.220403 190.212696 
L 306.551573 189.658663 
L 306.882743 189.584004 
L 307.213913 189.954575 
L 307.545083 189.577294 
L 307.876253 189.369212 
L 308.207423 189.404212 
L 308.869763 188.988703 
L 309.200933 188.838213 
L 309.863273 188.950305 
L 310.525613 188.7582 
L 310.856783 188.19033 
L 311.187953 188.543262 
L 311.519123 187.790112 
L 311.850293 188.442752 
L 312.181463 187.904007 
L 312.512633 187.947064 
L 312.843803 187.754729 
L 313.174972 187.787465 
L 313.837312 187.442219 
L 314.499652 187.214905 
L 314.830822 187.587696 
L 315.161992 187.045242 
L 315.493162 187.14771 
L 315.824332 187.021933 
L 316.155502 186.708929 
L 316.486672 187.160819 
L 316.817842 186.692177 
L 317.149012 186.631261 
L 317.480182 186.823291 
L 318.804862 186.30555 
L 319.136032 186.546612 
L 319.798372 186.444162 
L 320.129542 186.144676 
L 320.460712 186.516493 
L 320.791882 186.185086 
L 321.123052 186.262617 
L 321.454221 186.040017 
L 321.785391 186.397743 
L 322.116561 186.397779 
L 322.447731 186.228616 
L 323.772411 186.321094 
L 324.103581 185.976147 
L 324.765921 186.626794 
L 325.097091 186.403571 
L 325.428261 186.571414 
L 325.759431 186.376808 
L 326.421771 186.314767 
L 326.752941 186.82422 
L 327.415281 186.593424 
L 327.746451 186.684111 
L 328.077621 186.596641 
L 328.408791 186.679562 
L 328.739961 187.222421 
L 329.73347 187.028249 
L 330.39581 187.483584 
L 330.72698 187.467188 
L 331.05815 187.185876 
L 331.38932 187.84801 
L 331.72049 187.514353 
L 332.05166 188.041348 
L 332.38283 187.734092 
L 332.714 187.84569 
L 333.04517 188.362086 
L 333.70751 188.407459 
L 334.36985 188.385007 
L 335.03219 188.880457 
L 335.69453 188.85351 
L 336.35687 189.410621 
L 336.68804 189.153538 
L 337.01921 189.640291 
L 337.35038 189.757422 
L 337.68155 189.670907 
L 338.012719 189.895001 
L 338.343889 189.860814 
L 338.675059 190.092841 
L 339.006229 190.100808 
L 339.668569 190.547936 
L 339.999739 190.67944 
L 340.330909 190.986696 
L 340.662079 190.770179 
L 340.993249 190.756049 
L 341.655589 191.371806 
L 341.986759 191.174285 
L 342.317929 191.389541 
L 342.980269 191.620209 
L 343.311439 191.316698 
L 343.642609 191.834668 
L 343.973779 191.981638 
L 344.304949 191.865542 
L 344.967289 192.550606 
L 345.298459 192.280894 
L 345.629629 192.607346 
L 345.960799 192.456351 
L 346.291968 192.708026 
L 346.623138 192.589353 
L 346.954308 192.677936 
L 347.285478 193.01065 
L 347.616648 192.792161 
L 347.947818 193.32102 
L 348.278988 192.796741 
L 348.610158 193.128754 
L 349.272498 193.306953 
L 349.934838 193.384587 
L 350.266008 193.644604 
L 351.259518 193.538047 
L 351.590688 193.810389 
L 351.921858 193.559939 
L 352.253028 193.756942 
L 352.584198 193.764486 
L 352.915368 193.972871 
L 353.246538 193.628255 
L 353.577708 193.69836 
L 353.908878 194.149296 
L 354.240048 193.729774 
L 354.902387 193.816235 
L 355.233557 193.991569 
L 356.227067 193.761084 
L 356.558237 193.926141 
L 356.889407 193.830422 
L 357.220577 193.980407 
L 357.551747 193.657064 
L 357.882917 193.623156 
L 358.214087 193.810609 
L 358.545257 193.684917 
L 358.876427 193.787901 
L 359.869937 193.451769 
L 360.532277 193.306204 
L 360.863447 193.499755 
L 361.525787 193.193559 
L 361.856957 193.077446 
L 362.188127 193.450412 
L 362.519297 193.199976 
L 362.850466 192.704828 
L 363.181636 193.113227 
L 363.512806 193.096801 
L 363.843976 192.607701 
L 364.175146 192.52044 
L 364.837486 192.646951 
L 365.168656 192.147191 
L 365.499826 192.478715 
L 366.162166 192.013434 
L 366.824506 192.069508 
L 367.486846 191.558504 
L 368.149186 191.611357 
L 368.480356 191.551139 
L 368.811526 191.1627 
L 369.473866 190.844321 
L 369.805036 191.365597 
L 370.136206 190.489241 
L 370.798546 190.963431 
L 371.129715 190.291656 
L 371.460885 190.111831 
L 371.792055 190.406574 
L 372.123225 190.080274 
L 372.454395 190.303069 
L 373.116735 189.400764 
L 373.447905 189.679627 
L 374.441415 189.156165 
L 375.103755 189.171873 
L 375.766095 188.623771 
L 376.097265 188.732587 
L 376.759605 188.640928 
L 377.090775 188.31528 
L 377.421945 188.369888 
L 377.753115 188.285842 
L 378.084285 187.797242 
L 378.415455 187.94772 
L 378.746625 187.926046 
L 379.077795 187.72677 
L 379.740134 187.745935 
L 380.071304 187.466762 
L 380.733644 187.524017 
L 381.064814 186.767321 
L 381.395984 187.243199 
L 382.058324 186.902306 
L 382.389494 187.047567 
L 382.720664 186.827252 
L 383.383004 186.643406 
L 383.714174 186.531884 
L 384.045344 186.757277 
L 384.376514 186.834556 
L 385.038854 186.537689 
L 385.370024 186.431164 
L 385.701194 185.960881 
L 386.032364 186.272582 
L 386.694704 186.341084 
L 387.025874 186.105824 
L 388.681723 186.333557 
L 389.012893 186.153259 
L 389.344063 186.426116 
L 390.006403 186.064075 
L 390.337573 186.320842 
L 390.668743 186.406757 
L 390.999913 186.251401 
L 391.331083 186.581637 
L 391.662253 186.226654 
L 391.993423 186.442006 
L 392.324593 186.37706 
L 392.655763 186.104826 
L 392.986933 186.918888 
L 393.318103 186.672661 
L 393.649273 186.908166 
L 393.980443 186.718553 
L 394.311613 186.739699 
L 394.642783 186.952042 
L 394.973953 186.864113 
L 395.305123 186.909071 
L 395.636293 187.210493 
L 396.629802 187.520289 
L 396.960972 187.661556 
L 397.292142 187.555413 
L 397.623312 187.320803 
L 397.954482 187.876701 
L 398.616822 187.80185 
L 398.947992 188.128621 
L 399.279162 188.282691 
L 399.610332 188.221019 
L 400.272672 188.619534 
L 400.935012 188.566775 
L 401.266182 188.830204 
L 401.597352 189.277636 
L 401.928522 189.320335 
L 402.259692 188.948452 
L 402.590862 189.472086 
L 403.253202 189.332878 
L 403.584372 190.051924 
L 403.915542 189.418069 
L 404.246711 190.222442 
L 404.577881 189.988143 
L 404.909051 190.177231 
L 405.240221 190.16225 
L 405.571391 190.586287 
L 406.233731 190.755095 
L 406.564901 190.602042 
L 407.227241 191.040156 
L 407.558411 190.902594 
L 407.889581 191.590755 
L 408.220751 191.321947 
L 408.551921 191.666138 
L 409.545431 191.665158 
L 409.876601 192.034731 
L 410.207771 191.83898 
L 410.538941 191.968209 
L 410.870111 192.409481 
L 411.532451 192.371188 
L 411.863621 192.506706 
L 412.194791 192.804226 
L 412.52596 192.51433 
L 412.85713 192.884221 
L 413.85064 192.988355 
L 414.51298 193.455116 
L 415.17532 193.12956 
L 415.50649 193.199425 
L 415.83766 193.763659 
L 416.16883 193.394823 
L 416.5 193.857038 
L 416.5 193.857038 
" style="fill:none;stroke:#e41a1c;stroke-linecap:square;stroke-width:2;"/>
   </g>
   <g id="patch_3">
    <path d="M 85.66121 228 
L 85.66121 15.5 
" style="fill:none;stroke:#000000;stroke-linecap:square;stroke-linejoin:miter;stroke-width:0.8;"/>
   </g>
   <g id="patch_4">
    <path d="M 416.5 228 
L 416.5 15.5 
" style="fill:none;"/>
   </g>
   <g id="patch_5">
    <path d="M 85.66121 228 
L 416.5 228 
" style="fill:none;stroke:#000000;stroke-linecap:square;stroke-linejoin:miter;stroke-width:0.8;"/>
   </g>
   <g id="patch_6">
    <path d="M 85.66121 15.5 
L 416.5 15.5 
" style="fill:none;"/>
   </g>
   <g id="legend_1">
    <g id="patch_7">
     <path d="M 319.02827 45.03585 
L 411.7 45.03585 
Q 414.9 45.03585 414.9 41.83585 
L 414.9 20.3 
Q 414.9 17.1 411.7 17.1 
L 319.02827 17.1 
Q 315.82827 17.1 315.82827 20.3 
L 315.82827 41.83585 
Q 315.82827 45.03585 319.02827 45.03585 
z
" style="fill:#ffffff;stroke:#000000;stroke-linejoin:miter;"/>
    </g>
    <g id="line2d_13">
     <path d="M 322.22827 29.75596 
L 354.22827 29.75596 
" style="fill:none;stroke:#e41a1c;stroke-linecap:square;stroke-width:2;"/>
    </g>
    <g id="line2d_14"/>
    <g id="text_14">
     <!-- Input -->
     <g transform="translate(367.02827 35.35596)scale(0.16 -0.16)">
      <use transform="translate(0 -1.570628)scale(0.996264)" xlink:href="#Century_Schoolbook_L_Roman-73"/>
      <use transform="translate(40.547425 -1.570628)scale(0.996264)" xlink:href="#Century_Schoolbook_L_Roman-110"/>
      <use transform="translate(101.419056 -1.570628)scale(0.996264)" xlink:href="#Century_Schoolbook_L_Roman-112"/>
      <use transform="translate(158.604543 -1.570628)scale(0.996264)" xlink:href="#Century_Schoolbook_L_Roman-117"/>
      <use transform="translate(219.476174 -1.570628)scale(0.996264)" xlink:href="#Century_Schoolbook_L_Roman-116"/>
     </g>
    </g>
   </g>
  </g>
 </g>
 <defs>
  <clipPath id="pbc36a62597">
   <rect height="212.5" width="330.83879" x="85.66121" y="15.5"/>
  </clipPath>
 </defs>
</svg>
