<?xml version="1.0" encoding="utf-8" standalone="no"?>
<!DOCTYPE svg PUBLIC "-//W3C//DTD SVG 1.1//EN"
  "http://www.w3.org/Graphics/SVG/1.1/DTD/svg11.dtd">
<!-- Created with matplotlib (http://matplotlib.org/) -->
<svg height="288pt" version="1.1" viewBox="0 0 432 288" width="432pt" xmlns="http://www.w3.org/2000/svg" xmlns:xlink="http://www.w3.org/1999/xlink">
 <defs>
  <style type="text/css">
*{stroke-linecap:butt;stroke-linejoin:round;}
  </style>
 </defs>
 <g id="figure_1">
  <g id="patch_1">
   <path d="M 0 288 
L 432 288 
L 432 0 
L 0 0 
z
" style="fill:#ffffff;"/>
  </g>
  <g id="axes_1">
   <g id="patch_2">
    <path d="M 63.40604 228 
L 416.5 228 
L 416.5 15.5 
L 63.40604 15.5 
z
" style="fill:#ffffff;"/>
   </g>
   <g id="matplotlib.axis_1">
    <g id="xtick_1">
     <g id="line2d_1">
      <defs>
       <path d="M 0 0 
L 0 3.5 
" id="m9863f3089c" style="stroke:#000000;stroke-width:0.8;"/>
      </defs>
      <g>
       <use style="stroke:#000000;stroke-width:0.8;" x="63.40604" xlink:href="#m9863f3089c" y="228"/>
      </g>
     </g>
     <g id="text_1">
      <!-- $0$ -->
      <defs>
       <path d="M 42 31.640625 
C 42 37.75 41.90625 48.125 37.703125 56.109375 
C 34 63.109375 28.09375 65.59375 22.90625 65.59375 
C 18.09375 65.59375 12 63.40625 8.203125 56.203125 
C 4.203125 48.71875 3.796875 39.4375 3.796875 31.640625 
C 3.796875 25.953125 3.90625 17.28125 7 9.671875 
C 11.296875 -0.609375 19 -2 22.90625 -2 
C 27.5 -2 34.5 -0.109375 38.59375 9.375 
C 41.59375 16.28125 42 24.359375 42 31.640625 
z
M 22.90625 -0.40625 
C 16.5 -0.40625 12.703125 5.078125 11.296875 12.6875 
C 10.203125 18.5625 10.203125 27.15625 10.203125 32.75 
C 10.203125 40.4375 10.203125 46.828125 11.5 52.921875 
C 13.40625 61.390625 19 64 22.90625 64 
C 27 64 32.296875 61.296875 34.203125 53.125 
C 35.5 47.4375 35.59375 40.734375 35.59375 32.75 
C 35.59375 26.25 35.59375 18.265625 34.40625 12.375 
C 32.296875 1.484375 26.40625 -0.40625 22.90625 -0.40625 
z
" id="CMR17-48"/>
      </defs>
      <g transform="translate(59.278475 248.33795)scale(0.18 -0.18)">
       <use transform="scale(0.996264)" xlink:href="#CMR17-48"/>
      </g>
     </g>
    </g>
    <g id="xtick_2">
     <g id="line2d_2">
      <g>
       <use style="stroke:#000000;stroke-width:0.8;" x="134.095521" xlink:href="#m9863f3089c" y="228"/>
      </g>
     </g>
     <g id="text_2">
      <!-- $2$ -->
      <defs>
       <path d="M 41.703125 15.453125 
L 39.90625 15.453125 
C 38.90625 8.375 38.09375 7.171875 37.703125 6.5625 
C 37.203125 5.765625 30 5.765625 28.59375 5.765625 
L 9.40625 5.765625 
C 13 9.671875 20 16.75 28.5 24.953125 
C 34.59375 30.734375 41.703125 37.53125 41.703125 47.421875 
C 41.703125 59.21875 32.296875 66 21.796875 66 
C 10.796875 66 4.09375 56.3125 4.09375 47.34375 
C 4.09375 43.4375 7 42.9375 8.203125 42.9375 
C 9.203125 42.9375 12.203125 43.546875 12.203125 47.03125 
C 12.203125 50.109375 9.59375 51 8.203125 51 
C 7.59375 51 7 50.90625 6.59375 50.703125 
C 8.5 59.21875 14.296875 63.40625 20.40625 63.40625 
C 29.09375 63.40625 34.796875 56.515625 34.796875 47.421875 
C 34.796875 38.734375 29.703125 31.25 24 24.75 
L 4.09375 2.28125 
L 4.09375 0 
L 39.296875 0 
z
" id="CMR17-50"/>
      </defs>
      <g transform="translate(129.967956 248.33795)scale(0.18 -0.18)">
       <use transform="scale(0.996264)" xlink:href="#CMR17-50"/>
      </g>
     </g>
    </g>
    <g id="xtick_3">
     <g id="line2d_3">
      <g>
       <use style="stroke:#000000;stroke-width:0.8;" x="204.785003" xlink:href="#m9863f3089c" y="228"/>
      </g>
     </g>
     <g id="text_3">
      <!-- $4$ -->
      <defs>
       <path d="M 33.59375 64.40625 
C 33.59375 66.5 33.5 66.5 31.703125 66.5 
L 2 19.59375 
L 2 17 
L 27.796875 17 
L 27.796875 7.140625 
C 27.796875 3.5 27.59375 2.5 20.59375 2.5 
L 18.703125 2.5 
L 18.703125 0 
C 21.90625 0 27.296875 0 30.703125 0 
C 34.09375 0 39.5 0 42.703125 0 
L 42.703125 2.5 
L 40.796875 2.5 
C 33.796875 2.5 33.59375 3.5 33.59375 7.140625 
L 33.59375 17 
L 43.796875 17 
L 43.796875 19.59375 
L 33.59375 19.59375 
z
M 28.09375 57.859375 
L 28.09375 19.59375 
L 4 19.59375 
z
" id="CMR17-52"/>
      </defs>
      <g transform="translate(200.657438 248.33795)scale(0.18 -0.18)">
       <use transform="scale(0.996264)" xlink:href="#CMR17-52"/>
      </g>
     </g>
    </g>
    <g id="xtick_4">
     <g id="line2d_4">
      <g>
       <use style="stroke:#000000;stroke-width:0.8;" x="275.474484" xlink:href="#m9863f3089c" y="228"/>
      </g>
     </g>
     <g id="text_4">
      <!-- $6$ -->
      <defs>
       <path d="M 10.59375 34 
C 10.59375 57.65625 21.796875 63 28.296875 63 
C 30.40625 63 35.5 62.640625 37.5 59 
C 35.90625 59 32.90625 59 32.90625 55.515625 
C 32.90625 52.828125 35.09375 51.921875 36.5 51.921875 
C 37.40625 51.921875 40.09375 52.3125 40.09375 55.625 
C 40.09375 61.78125 35.09375 65.296875 28.203125 65.296875 
C 16.296875 65.296875 3.796875 52.96875 3.796875 31 
C 3.796875 3.953125 15.09375 -2 23.09375 -2 
C 32.796875 -2 42 6.671875 42 20.046875 
C 42 32.515625 33.90625 41.59375 23.703125 41.59375 
C 17.59375 41.59375 13.09375 37.609375 10.59375 30.625 
z
M 23.09375 0.390625 
C 10.796875 0.390625 10.796875 18.75 10.796875 22.4375 
C 10.796875 29.625 14.203125 40 23.5 40 
C 25.203125 40 30.09375 40 33.40625 33.125 
C 35.203125 29.21875 35.203125 25.140625 35.203125 20.140625 
C 35.203125 14.75 35.203125 10.78125 33.09375 6.78125 
C 30.90625 2.671875 27.703125 0.390625 23.09375 0.390625 
z
" id="CMR17-54"/>
      </defs>
      <g transform="translate(271.346919 248.33795)scale(0.18 -0.18)">
       <use transform="scale(0.996264)" xlink:href="#CMR17-54"/>
      </g>
     </g>
    </g>
    <g id="xtick_5">
     <g id="line2d_5">
      <g>
       <use style="stroke:#000000;stroke-width:0.8;" x="346.163966" xlink:href="#m9863f3089c" y="228"/>
      </g>
     </g>
     <g id="text_5">
      <!-- $8$ -->
      <defs>
       <path d="M 27.203125 35.375 
C 33.5 38.546875 39.90625 43.328125 39.90625 50.984375 
C 39.90625 60.015625 31.09375 65.296875 23 65.296875 
C 13.90625 65.296875 5.90625 58.734375 5.90625 49.6875 
C 5.90625 47.203125 6.5 42.921875 10.40625 39.140625 
C 11.40625 38.15625 15.59375 35.171875 18.296875 33.28125 
C 13.796875 30.984375 3.296875 25.53125 3.296875 14.59375 
C 3.296875 4.359375 13.09375 -2 22.796875 -2 
C 33.5 -2 42.5 5.65625 42.5 15.78125 
C 42.5 24.84375 36.40625 29.015625 32.40625 31.703125 
z
M 14.09375 44.09375 
C 13.296875 44.59375 9.296875 47.671875 9.296875 52.359375 
C 9.296875 58.421875 15.59375 63 22.796875 63 
C 30.703125 63 36.5 57.4375 36.5 50.96875 
C 36.5 41.703125 26.09375 36.421875 25.59375 36.421875 
C 25.5 36.421875 25.40625 36.421875 24.59375 37.03125 
z
M 32.5 23.734375 
C 34 22.640625 38.796875 19.375 38.796875 13.296875 
C 38.796875 5.953125 31.40625 0.390625 23 0.390625 
C 13.90625 0.390625 7 6.84375 7 14.6875 
C 7 22.546875 13.09375 29.09375 20 32.1875 
z
" id="CMR17-56"/>
      </defs>
      <g transform="translate(342.036401 248.33795)scale(0.18 -0.18)">
       <use transform="scale(0.996264)" xlink:href="#CMR17-56"/>
      </g>
     </g>
    </g>
    <g id="text_6">
     <!-- Time (s) -->
     <defs>
      <path d="M 63.296875 72 
L 3.40625 72 
L 1.90625 44.265625 
L 6.203125 44.265625 
C 6.90625 49.25 7.796875 53.046875 8.90625 56.234375 
C 11.5 63.515625 16.296875 67.3125 23.09375 67.3125 
C 26.40625 67.3125 27.796875 66.203125 27.796875 63.71875 
L 27.796875 12.28125 
L 27.796875 9.375 
C 27.796875 5.1875 26.90625 4.6875 18.796875 4.6875 
L 16.203125 4.6875 
L 16.203125 0 
L 50.5 0 
L 50.5 4.6875 
L 47.90625 4.6875 
C 39.90625 4.6875 39 5.1875 39 9.375 
L 39 12.28125 
L 39 63.71875 
C 39 66.203125 40.40625 67.3125 43.703125 67.3125 
C 49.796875 67.3125 54.703125 63.90625 57.203125 57.921875 
C 58.703125 54.25 59.703125 49.953125 60.5 44.265625 
L 64.796875 44.265625 
z
" id="Century_Schoolbook_L_Roman-84"/>
      <path d="M 20.59375 46 
L 1.796875 46 
L 1.796875 41.21875 
L 6.90625 41.21875 
C 10.59375 41.21875 11.203125 40.515625 11.203125 36.203125 
L 11.203125 12.296875 
L 11.203125 8.296875 
C 11.203125 4.296875 10.09375 3.59375 3.703125 3.59375 
L 3 3.59375 
L 3 0 
L 28.90625 0 
L 28.90625 3.59375 
L 28.203125 3.59375 
C 21.703125 3.59375 20.59375 4.28125 20.59375 8.21875 
L 20.59375 12.171875 
z
M 15.90625 71.578125 
C 12.703125 71.578125 10.09375 68.984375 10.09375 65.796875 
C 10.09375 62.703125 12.703125 60 15.796875 60 
C 19.09375 60 21.703125 62.59375 21.703125 65.796875 
C 21.703125 68.984375 19.09375 71.578125 15.90625 71.578125 
z
" id="Century_Schoolbook_L_Roman-105"/>
      <path d="M 20.09375 46 
L 2.296875 46 
L 2.296875 41.21875 
L 6.40625 41.21875 
C 10.09375 41.21875 10.703125 40.515625 10.703125 36.203125 
L 10.703125 12.296875 
L 10.703125 8.40625 
C 10.703125 4.296875 9.59375 3.59375 3.203125 3.59375 
L 2.796875 3.59375 
L 2.796875 0 
L 28 0 
L 28 3.59375 
L 27.59375 3.59375 
C 21.203125 3.59375 20.09375 4.296875 20.09375 8.390625 
L 20.09375 12.28125 
L 20.09375 26.453125 
C 20.09375 35.328125 25 41.921875 31.5 41.921875 
C 34.09375 41.921875 36.90625 40.515625 38.09375 38.625 
C 39.5 36.734375 40.09375 33.828125 40.09375 29.734375 
L 40.09375 12.28125 
L 40.09375 8.28125 
C 40.09375 4.296875 39 3.59375 32.5 3.59375 
L 32.09375 3.59375 
L 32.09375 0 
L 57.40625 0 
L 57.40625 3.59375 
L 57 3.59375 
C 50.59375 3.59375 49.5 4.296875 49.5 8.28125 
L 49.5 12.28125 
L 49.5 25.546875 
C 49.5 35.53125 54 41.921875 61 41.921875 
C 64.296875 41.921875 67 40.015625 68.296875 36.921875 
C 69.203125 34.734375 69.5 32.53125 69.5 28.640625 
L 69.5 12.28125 
L 69.5 8.28125 
C 69.5 4.296875 68.40625 3.59375 61.90625 3.59375 
L 61.5 3.59375 
L 61.5 0 
L 86.796875 0 
L 86.796875 3.59375 
L 86.40625 3.59375 
C 80 3.59375 78.90625 4.296875 78.90625 8.390625 
L 78.90625 12.28125 
L 78.90625 30.640625 
C 78.90625 36.828125 78.296875 38.921875 75.703125 42.3125 
C 72.796875 46.015625 68.703125 48 63.90625 48 
C 57.40625 48 52.59375 44.9375 48.296875 38.109375 
C 46.59375 44.046875 41.203125 48 34.5 48 
C 28.5 48 24 45.140625 20.09375 38.921875 
z
" id="Century_Schoolbook_L_Roman-109"/>
      <path d="M 46.5 23 
C 46.59375 37.8125 38.09375 48.28125 25.90625 48.28125 
C 13.09375 48.28125 3.5 37.25 3.5 22.34375 
C 3.5 8.4375 12.59375 -1 26.09375 -1 
C 35.59375 -1 42.40625 3.6875 46.5 13.1875 
L 43 15.09375 
C 38.90625 7.390625 34.703125 4.390625 28 4.390625 
C 22.90625 4.390625 19.203125 6.59375 16.59375 11 
C 14.796875 14 14 17.5 14.09375 23 
z
M 14.203125 27.296875 
C 14.203125 30.34375 14.59375 32.5 15.59375 35.25 
C 17.703125 41.140625 20.90625 44 25.703125 44 
C 31.796875 44 35.796875 38.78125 35.796875 30.921875 
C 35.796875 28.078125 34.90625 27.296875 31.703125 27.296875 
z
" id="Century_Schoolbook_L_Roman-101"/>
      <path d="M 27.90625 73.453125 
C 21.90625 69.765625 18.703125 67.171875 15.296875 63.171875 
C 7.703125 54.1875 3.59375 42.71875 3.59375 30.640625 
C 3.59375 19.265625 7.203125 8.578125 13.90625 -0.296875 
C 17.703125 -5.09375 21.09375 -8.078125 27.90625 -12.28125 
L 27.90625 -8.578125 
C 17.90625 0.203125 13.90625 11.484375 13.90625 30.640625 
C 13.90625 49.796875 17.90625 60.984375 27.90625 69.765625 
z
" id="Century_Schoolbook_L_Roman-40"/>
      <path d="M 39 48 
L 35.5 48 
L 32.59375 44.40625 
C 29 47.203125 25.40625 48.390625 20.40625 48.390625 
C 11.59375 48.390625 5.796875 42.625 5.796875 33.953125 
C 5.796875 30.078125 7.09375 26.78125 9.296875 24.8125 
C 11.59375 22.703125 13.90625 21.71875 19.90625 20.3125 
L 25.203125 19.125 
C 33.09375 17.234375 35.90625 15.234375 35.90625 11.265625 
C 35.90625 6.578125 31.796875 3.296875 25.90625 3.296875 
C 17.5 3.296875 11.5 8.765625 9.09375 18.875 
L 5.09375 18.875 
L 5.09375 0 
L 8.59375 0 
L 12.09375 3.90625 
C 16.203125 0.59375 20.796875 -1 25.796875 -1 
C 35.59375 -1 42.09375 5.078125 42.09375 14.34375 
C 42.09375 18.71875 40.703125 22.09375 37.90625 24.390625 
C 35.5 26.484375 33.5 27.28125 27.40625 28.5625 
L 22.40625 29.671875 
C 16.90625 30.859375 16.90625 30.859375 15.09375 31.859375 
C 12.90625 32.859375 11.59375 34.9375 11.59375 37.140625 
C 11.59375 41.109375 15.40625 44 20.90625 44 
C 24.703125 44 27.796875 42.703125 30.59375 40.015625 
C 32.796875 37.8125 33.90625 35.828125 35.5 31.234375 
L 39 31.234375 
z
" id="Century_Schoolbook_L_Roman-115"/>
      <path d="M 5.40625 -12.28125 
C 11.40625 -8.578125 14.59375 -5.984375 18 -1.890625 
C 25.59375 6.984375 29.703125 18.5625 29.703125 30.640625 
C 29.703125 42.015625 26.09375 52.703125 19.40625 61.484375 
C 15.59375 66.375 12.203125 69.359375 5.40625 73.453125 
L 5.40625 69.765625 
C 15.40625 60.984375 19.40625 49.796875 19.40625 30.640625 
C 19.40625 11.375 15.40625 0.203125 5.40625 -8.578125 
z
" id="Century_Schoolbook_L_Roman-41"/>
     </defs>
     <g transform="translate(205.951555 270.36577)scale(0.18 -0.18)">
      <use transform="translate(0 -0.29235)scale(0.996264)" xlink:href="#Century_Schoolbook_L_Roman-84"/>
      <use transform="translate(66.450031 -0.29235)scale(0.996264)" xlink:href="#Century_Schoolbook_L_Roman-105"/>
      <use transform="translate(97.831344 -0.29235)scale(0.996264)" xlink:href="#Century_Schoolbook_L_Roman-109"/>
      <use transform="translate(186.398251 -0.29235)scale(0.996264)" xlink:href="#Century_Schoolbook_L_Roman-101"/>
      <use transform="translate(263.906621 -0.29235)scale(0.996264)" xlink:href="#Century_Schoolbook_L_Roman-40"/>
      <use transform="translate(297.081851 -0.29235)scale(0.996264)" xlink:href="#Century_Schoolbook_L_Roman-115"/>
      <use transform="translate(343.207661 -0.29235)scale(0.996264)" xlink:href="#Century_Schoolbook_L_Roman-41"/>
     </g>
    </g>
   </g>
   <g id="matplotlib.axis_2">
    <g id="ytick_1">
     <g id="line2d_6">
      <defs>
       <path d="M 0 0 
L -3.5 0 
" id="m74efebbc77" style="stroke:#000000;stroke-width:0.8;"/>
      </defs>
      <g>
       <use style="stroke:#000000;stroke-width:0.8;" x="63.40604" xlink:href="#m74efebbc77" y="228"/>
      </g>
     </g>
     <g id="text_7">
      <!-- $0.0$ -->
      <defs>
       <path d="M 18.40625 4.796875 
C 18.40625 7.6875 16 9.671875 13.59375 9.671875 
C 10.703125 9.671875 8.703125 7.28125 8.703125 4.890625 
C 8.703125 2 11.09375 0 13.5 0 
C 16.40625 0 18.40625 2.390625 18.40625 4.796875 
z
" id="CMMI12-58"/>
      </defs>
      <g transform="translate(35 234.668975)scale(0.18 -0.18)">
       <use transform="scale(0.996264)" xlink:href="#CMR17-48"/>
       <use transform="translate(45.690477 0)scale(0.996264)" xlink:href="#CMMI12-58"/>
       <use transform="translate(72.787654 0)scale(0.996264)" xlink:href="#CMR17-48"/>
      </g>
     </g>
    </g>
    <g id="ytick_2">
     <g id="line2d_7">
      <g>
       <use style="stroke:#000000;stroke-width:0.8;" x="63.40604" xlink:href="#m74efebbc77" y="190.388134"/>
      </g>
     </g>
     <g id="text_8">
      <!-- $0.2$ -->
      <g transform="translate(35 197.057109)scale(0.18 -0.18)">
       <use transform="scale(0.996264)" xlink:href="#CMR17-48"/>
       <use transform="translate(45.690477 0)scale(0.996264)" xlink:href="#CMMI12-58"/>
       <use transform="translate(72.787654 0)scale(0.996264)" xlink:href="#CMR17-50"/>
      </g>
     </g>
    </g>
    <g id="ytick_3">
     <g id="line2d_8">
      <g>
       <use style="stroke:#000000;stroke-width:0.8;" x="63.40604" xlink:href="#m74efebbc77" y="152.776269"/>
      </g>
     </g>
     <g id="text_9">
      <!-- $0.4$ -->
      <g transform="translate(35 159.445244)scale(0.18 -0.18)">
       <use transform="scale(0.996264)" xlink:href="#CMR17-48"/>
       <use transform="translate(45.690477 0)scale(0.996264)" xlink:href="#CMMI12-58"/>
       <use transform="translate(72.787654 0)scale(0.996264)" xlink:href="#CMR17-52"/>
      </g>
     </g>
    </g>
    <g id="ytick_4">
     <g id="line2d_9">
      <g>
       <use style="stroke:#000000;stroke-width:0.8;" x="63.40604" xlink:href="#m74efebbc77" y="115.164403"/>
      </g>
     </g>
     <g id="text_10">
      <!-- $0.6$ -->
      <g transform="translate(35 121.833378)scale(0.18 -0.18)">
       <use transform="scale(0.996264)" xlink:href="#CMR17-48"/>
       <use transform="translate(45.690477 0)scale(0.996264)" xlink:href="#CMMI12-58"/>
       <use transform="translate(72.787654 0)scale(0.996264)" xlink:href="#CMR17-54"/>
      </g>
     </g>
    </g>
    <g id="ytick_5">
     <g id="line2d_10">
      <g>
       <use style="stroke:#000000;stroke-width:0.8;" x="63.40604" xlink:href="#m74efebbc77" y="77.552538"/>
      </g>
     </g>
     <g id="text_11">
      <!-- $0.8$ -->
      <g transform="translate(35 84.221513)scale(0.18 -0.18)">
       <use transform="scale(0.996264)" xlink:href="#CMR17-48"/>
       <use transform="translate(45.690477 0)scale(0.996264)" xlink:href="#CMMI12-58"/>
       <use transform="translate(72.787654 0)scale(0.996264)" xlink:href="#CMR17-56"/>
      </g>
     </g>
    </g>
    <g id="ytick_6">
     <g id="line2d_11">
      <g>
       <use style="stroke:#000000;stroke-width:0.8;" x="63.40604" xlink:href="#m74efebbc77" y="39.940672"/>
      </g>
     </g>
     <g id="text_12">
      <!-- $1.0$ -->
      <defs>
       <path d="M 26.59375 63.40625 
C 26.59375 65.5 26.5 65.5 25.09375 65.5 
C 21.203125 61.1875 15.296875 59.796875 9.703125 59.796875 
C 9.40625 59.796875 8.90625 59.796875 8.796875 59.5 
C 8.703125 59.296875 8.703125 59.09375 8.703125 57 
C 11.796875 57 17 57.59375 21 59.984375 
L 21 7.203125 
C 21 3.6875 20.796875 2.5 12.203125 2.5 
L 9.203125 2.5 
L 9.203125 0 
C 14 0 19 0 23.796875 0 
C 28.59375 0 33.59375 0 38.40625 0 
L 38.40625 2.5 
L 35.40625 2.5 
C 26.796875 2.5 26.59375 3.59375 26.59375 7.15625 
z
" id="CMR17-49"/>
      </defs>
      <g transform="translate(35 46.609647)scale(0.18 -0.18)">
       <use transform="scale(0.996264)" xlink:href="#CMR17-49"/>
       <use transform="translate(45.690477 0)scale(0.996264)" xlink:href="#CMMI12-58"/>
       <use transform="translate(72.787654 0)scale(0.996264)" xlink:href="#CMR17-48"/>
      </g>
     </g>
    </g>
    <g id="text_13">
     <!-- Input Force (N) -->
     <defs>
      <path d="M 26 59.734375 
L 26 62.609375 
C 26 66.8125 26.90625 67.3125 34.90625 67.3125 
L 36.90625 67.3125 
L 36.90625 72 
L 3.796875 72 
L 3.796875 67.3125 
L 5.796875 67.3125 
C 13.90625 67.3125 14.796875 66.8125 14.796875 62.609375 
L 14.796875 59.734375 
L 14.796875 12.28125 
L 14.796875 9.375 
C 14.796875 5.1875 13.90625 4.6875 5.796875 4.6875 
L 3.796875 4.6875 
L 3.796875 0 
L 36.90625 0 
L 36.90625 4.6875 
L 34.90625 4.6875 
C 26.90625 4.6875 26 5.1875 26 9.375 
L 26 12.28125 
z
" id="Century_Schoolbook_L_Roman-73"/>
      <path d="M 20 46 
L 2.703125 46 
L 2.703125 41.21875 
L 6.296875 41.21875 
C 10 41.21875 10.59375 40.515625 10.59375 36.203125 
L 10.59375 12.296875 
L 10.59375 8.296875 
C 10.59375 4.296875 9.5 3.59375 3.09375 3.59375 
L 2.703125 3.59375 
L 2.703125 0 
L 28 0 
L 28 3.59375 
L 27.59375 3.59375 
C 21.09375 3.59375 20 4.296875 20 8.28125 
L 20 12.28125 
L 20 22.65625 
C 20 27.546875 20.703125 32.03125 21.796875 34.328125 
C 23.90625 38.828125 28.40625 41.921875 32.703125 41.921875 
C 35.296875 41.921875 38.296875 40.421875 39.796875 38.421875 
C 41.296875 36.328125 42 33.234375 42 28.4375 
L 42 12.28125 
L 42 8.28125 
C 42 4.296875 40.90625 3.59375 34.40625 3.59375 
L 34 3.59375 
L 34 0 
L 59.296875 0 
L 59.296875 3.59375 
L 58.90625 3.59375 
C 52.5 3.59375 51.40625 4.296875 51.40625 8.28125 
L 51.40625 12.28125 
L 51.40625 27.953125 
C 51.40625 35.125 51.09375 36.921875 49.296875 40.328125 
C 46.796875 45.109375 41.703125 48 35.796875 48 
C 29.40625 48 24.40625 45.046875 20 38.515625 
z
" id="Century_Schoolbook_L_Roman-110"/>
      <path d="M 20.09375 46 
L 2.796875 46 
L 2.796875 41.21875 
L 6.40625 41.21875 
C 10.09375 41.21875 10.703125 40.515625 10.703125 36.21875 
L 10.703125 -7.75 
L 10.703125 -11.71875 
C 10.703125 -15.71875 9.59375 -16.40625 3.203125 -16.40625 
L 2.796875 -16.40625 
L 2.796875 -20 
L 28.796875 -20 
L 28.796875 -16.40625 
L 27.703125 -16.40625 
C 21.203125 -16.40625 20.09375 -15.71875 20.09375 -11.734375 
L 20.09375 -7.75 
L 20.09375 6.6875 
C 23.40625 0.90625 27.203125 -1.390625 33.296875 -1.390625 
C 44.90625 -1.390625 53.5 9.265625 53.5 23.5 
C 53.5 37.265625 44.90625 48 33.90625 48 
C 27.703125 48 23.59375 45.4375 20.09375 39.515625 
z
M 32.09375 42.609375 
C 39 42.609375 43 35.75 43 24.09375 
C 43 11.265625 38.90625 4 31.796875 4 
C 24.703125 4 20 11.375 20 22.8125 
C 20 35.140625 24.5 42.609375 32.09375 42.609375 
z
" id="Century_Schoolbook_L_Roman-112"/>
      <path d="M 41.203125 0 
L 59.40625 0 
L 59.40625 4.703125 
L 56.90625 4.703125 
C 51.40625 4.703125 50.59375 5.59375 50.59375 11.953125 
L 50.59375 46.78125 
L 31.796875 46.78125 
L 31.796875 42 
L 36.90625 42 
C 40.59375 42 41.203125 41.296875 41.203125 36.953125 
L 41.203125 24.5625 
C 41.203125 18.8125 40.59375 15.484375 39.09375 12.15625 
C 37 7.71875 33 5.09375 28.09375 5.09375 
C 25 5.09375 22.40625 6.1875 21.09375 8.171875 
C 19.796875 10.046875 19.59375 11.046875 19.59375 16.5 
L 19.59375 46.78125 
L 2.09375 46.78125 
L 2.09375 42 
L 5.90625 42 
C 9.59375 42 10.203125 41.296875 10.203125 36.953125 
L 10.203125 15.21875 
C 10.203125 10.078125 10.59375 7.765625 12.09375 5.453125 
C 14.796875 1.3125 19.59375 -1 25.59375 -1 
C 32.203125 -1 36.796875 1.71875 41.203125 8.125 
z
" id="Century_Schoolbook_L_Roman-117"/>
      <path d="M 19.40625 47 
L 19.40625 67 
L 15.296875 67 
C 14.296875 53.875 9.90625 47.1875 1.796875 46.59375 
L 1.796875 42.703125 
L 10 42.703125 
L 10 17.265625 
C 10 10.28125 10.203125 7.78125 11.203125 5.484375 
C 12.796875 1.296875 16.796875 -1 22.59375 -1 
C 26.5 -1 29.90625 0.203125 32.203125 2.390625 
C 35.5 5.59375 37.40625 10.875 37.40625 16.375 
C 37.40625 16.96875 37.40625 17.671875 37.296875 18.671875 
L 33.09375 18.671875 
C 32.796875 9.6875 30.203125 5.09375 25.296875 5.09375 
C 23 5.09375 21 6.28125 20.296875 7.984375 
C 19.703125 9.375 19.40625 11.875 19.40625 15.46875 
L 19.40625 42.703125 
L 34.09375 42.703125 
L 34.09375 47 
z
" id="Century_Schoolbook_L_Roman-116"/>
      <path d="M 62.40625 72 
L 2.90625 72 
L 2.90625 67.3125 
L 4.703125 67.3125 
C 12.796875 67.3125 13.703125 66.8125 13.703125 62.609375 
L 13.703125 59.734375 
L 13.703125 12.28125 
L 13.703125 9.375 
C 13.703125 5.1875 12.796875 4.6875 4.703125 4.6875 
L 2.90625 4.6875 
L 2.90625 0 
L 37.203125 0 
L 37.203125 4.6875 
L 33.90625 4.6875 
C 25.796875 4.6875 24.90625 5.1875 24.90625 9.390625 
L 24.90625 12.296875 
L 24.90625 35 
L 26.90625 35 
C 33.09375 35 35.5 34.375 37.59375 32.234375 
C 40.09375 29.578125 41.09375 26.296875 41.296875 20.265625 
L 46 20.265625 
L 46 53 
L 41.296875 53 
C 40.796875 43.46875 36.796875 39.6875 27.296875 39.6875 
L 24.90625 39.6875 
L 24.90625 62.328125 
C 24.90625 66.609375 25.796875 67.3125 31.203125 67.3125 
L 35.796875 67.3125 
C 52.296875 67.3125 56.59375 63.5 59.40625 46.390625 
L 63.796875 46.390625 
z
" id="Century_Schoolbook_L_Roman-70"/>
      <path d="M 25.203125 48.28125 
C 13 48.28125 3.40625 37.453125 3.40625 23.546875 
C 3.40625 9.9375 13 -1 25 -1 
C 37 -1 46.59375 9.9375 46.59375 23.640625 
C 46.59375 37.25 37 48.28125 25.203125 48.28125 
z
M 25.203125 44 
C 32.203125 44 36.09375 36.75 36.09375 23.640625 
C 36.09375 10.453125 32.203125 3.296875 25 3.296875 
C 17.796875 3.296875 13.90625 10.453125 13.90625 23.546875 
C 13.90625 37.046875 17.703125 44 25.203125 44 
z
" id="Century_Schoolbook_L_Roman-111"/>
      <path d="M 19.796875 46 
L 2.09375 46 
L 2.09375 41.21875 
L 6.203125 41.21875 
C 9.90625 41.21875 10.5 40.515625 10.5 36.203125 
L 10.5 12.296875 
L 10.5 8.296875 
C 10.5 4.296875 9.40625 3.59375 2.90625 3.59375 
L 2.5 3.59375 
L 2.5 0 
L 29.203125 0 
L 29.203125 3.59375 
L 27.296875 3.59375 
C 20.90625 3.59375 19.796875 4.296875 19.796875 8.296875 
L 19.796875 12.296875 
L 19.796875 13.296875 
C 19.796875 20.8125 21.203125 28.40625 23.703125 34.109375 
C 26.09375 39.703125 29.5 42.8125 33.703125 43.3125 
C 32.296875 41.703125 31.90625 40.6875 31.90625 38.765625 
C 31.90625 35.546875 34.203125 33.234375 37.40625 33.234375 
C 41 33.234375 43.5 35.9375 43.5 40.015625 
C 43.5 44.8125 40.09375 48 34.796875 48 
C 28.5 48 23 42.921875 19.796875 34.140625 
z
" id="Century_Schoolbook_L_Roman-114"/>
      <path d="M 38.703125 15.125 
C 35.5 7.96875 32.09375 5.09375 26.90625 5.09375 
C 18.90625 5.09375 13.90625 12.328125 13.90625 23.9375 
C 13.90625 35.953125 18.796875 44 26.203125 44 
C 29.203125 44 31.796875 42.59375 31.796875 41.015625 
C 31.796875 40.71875 31.59375 40.421875 31.203125 39.8125 
C 29.59375 37.9375 29.203125 36.9375 29.203125 35.265625 
C 29.203125 31.984375 31.703125 29.703125 35.203125 29.703125 
C 38.703125 29.703125 41.296875 32.484375 41.296875 36.453125 
C 41.296875 43.109375 34.59375 48.28125 25.703125 48.28125 
C 12.703125 48.28125 3.40625 37.65625 3.40625 22.84375 
C 3.40625 8.734375 11.90625 -1 24.296875 -1 
C 33.203125 -1 38.296875 3.078125 42.59375 13.625 
z
" id="Century_Schoolbook_L_Roman-99"/>
      <path d="M 22.5 72 
L 1.90625 72 
L 1.90625 67.3125 
L 4.40625 67.3125 
C 9.5 67.3125 11.796875 66.5 13.59375 64.015625 
L 13.59375 21.5 
C 13.59375 7.78125 11.59375 4.890625 2 4.890625 
L 2 0 
L 30.5 0 
L 30.5 4.890625 
C 21 4.890625 19 7.796875 19 21.5 
L 19 58.640625 
L 63.59375 -1.6875 
L 67.796875 -1.6875 
L 67.796875 50.59375 
C 67.796875 64.390625 69.796875 67.3125 79.40625 67.3125 
L 79.40625 72 
L 50.90625 72 
L 50.90625 67.3125 
C 60.40625 67.3125 62.40625 64.40625 62.40625 50.625 
L 62.40625 19.046875 
z
" id="Century_Schoolbook_L_Roman-78"/>
     </defs>
     <g transform="translate(26.31013 185.91036)rotate(-90)scale(0.18 -0.18)">
      <use transform="translate(0 -1.570628)scale(0.996264)" xlink:href="#Century_Schoolbook_L_Roman-73"/>
      <use transform="translate(40.547425 -1.570628)scale(0.996264)" xlink:href="#Century_Schoolbook_L_Roman-110"/>
      <use transform="translate(101.419056 -1.570628)scale(0.996264)" xlink:href="#Century_Schoolbook_L_Roman-112"/>
      <use transform="translate(158.604543 -1.570628)scale(0.996264)" xlink:href="#Century_Schoolbook_L_Roman-117"/>
      <use transform="translate(219.476174 -1.570628)scale(0.996264)" xlink:href="#Century_Schoolbook_L_Roman-116"/>
      <use transform="translate(285.92505 -1.570628)scale(0.996264)" xlink:href="#Century_Schoolbook_L_Roman-70"/>
      <use transform="translate(346.896359 -1.570628)scale(0.996264)" xlink:href="#Century_Schoolbook_L_Roman-111"/>
      <use transform="translate(396.709559 -1.570628)scale(0.996264)" xlink:href="#Century_Schoolbook_L_Roman-114"/>
      <use transform="translate(440.943128 -1.570628)scale(0.996264)" xlink:href="#Century_Schoolbook_L_Roman-99"/>
      <use transform="translate(485.176696 -1.570628)scale(0.996264)" xlink:href="#Century_Schoolbook_L_Roman-101"/>
      <use transform="translate(562.685066 -1.570628)scale(0.996264)" xlink:href="#Century_Schoolbook_L_Roman-40"/>
      <use transform="translate(595.860296 -1.570628)scale(0.996264)" xlink:href="#Century_Schoolbook_L_Roman-78"/>
      <use transform="translate(677.05481 -1.570628)scale(0.996264)" xlink:href="#Century_Schoolbook_L_Roman-41"/>
     </g>
    </g>
   </g>
   <g id="line2d_12">
    <path clip-path="url(#p8f94008b2b)" d="M 63.40604 34.79841 
L 66.587067 34.79841 
L 66.940514 41.390199 
L 70.121541 41.390199 
L 70.474988 53.768657 
L 73.656015 53.768657 
L 74.009462 65.432522 
L 77.190489 65.432522 
L 77.543936 76.339938 
L 80.724963 76.339938 
L 81.07841 86.377434 
L 84.259437 86.377434 
L 84.612884 95.743796 
L 87.793911 95.743796 
L 88.147359 104.459805 
L 91.328385 104.459805 
L 91.681833 112.531495 
L 94.862859 112.531495 
L 95.216307 120.112613 
L 98.397333 120.112613 
L 98.750781 127.161505 
L 101.931807 127.161505 
L 102.285255 133.671668 
L 105.466281 133.671668 
L 105.819729 139.880888 
L 109.000756 139.880888 
L 109.354203 145.59682 
L 112.53523 145.59682 
L 112.888677 150.822848 
L 116.069704 150.822848 
L 116.423151 155.864408 
L 119.604178 155.864408 
L 119.957625 160.495962 
L 123.138652 160.495962 
L 123.492099 164.808424 
L 126.673126 164.808424 
L 127.026573 168.875376 
L 130.2076 168.875376 
L 130.561047 172.657658 
L 133.742074 172.657658 
L 134.095521 176.213353 
L 137.276548 176.213353 
L 137.629996 179.497252 
L 140.811022 179.497252 
L 141.16447 182.562579 
L 144.345496 182.562579 
L 144.698944 185.421067 
L 147.87997 185.421067 
L 148.233418 188.108406 
L 151.414444 188.108406 
L 151.767892 190.621852 
L 154.948919 190.621852 
L 155.302366 192.958253 
L 158.483393 192.958253 
L 158.83684 195.173203 
L 162.017867 195.173203 
L 162.371314 197.250777 
L 165.552341 197.250777 
L 165.905788 199.148126 
L 169.086815 199.148126 
L 169.440262 200.976834 
L 172.621289 200.976834 
L 172.974736 202.679155 
L 176.155763 202.679155 
L 176.50921 204.291643 
L 179.690237 204.291643 
L 180.043684 205.787178 
L 183.224711 205.787178 
L 183.578159 207.199864 
L 186.759185 207.199864 
L 187.112633 208.471224 
L 190.293659 208.471224 
L 190.647107 209.752914 
L 193.828133 209.752914 
L 194.181581 210.935571 
L 197.362607 210.935571 
L 197.716055 211.929255 
L 200.897081 211.929255 
L 201.250529 213.009283 
L 204.431556 213.009283 
L 204.785003 213.938019 
L 207.96603 213.938019 
L 208.319477 214.830985 
L 211.500504 214.830985 
L 211.853951 215.647975 
L 215.034978 215.647975 
L 215.388425 216.408931 
L 218.569452 216.408931 
L 218.922899 217.10356 
L 222.103926 217.10356 
L 222.457373 217.807284 
L 225.6384 217.807284 
L 225.991847 218.410596 
L 229.172874 218.410596 
L 229.526321 219.022232 
L 232.707348 219.022232 
L 233.060796 219.591578 
L 236.241822 219.591578 
L 236.59527 220.045911 
L 239.776296 220.045911 
L 240.129744 220.584327 
L 243.31077 220.584327 
L 243.664218 221.026314 
L 246.845244 221.026314 
L 247.198692 221.448842 
L 250.379719 221.448842 
L 250.733166 221.888459 
L 253.914193 221.888459 
L 254.26764 222.315199 
L 257.448667 222.315199 
L 257.802114 222.647441 
L 260.983141 222.647441 
L 261.336588 223.018929 
L 264.517615 223.018929 
L 264.871062 223.31323 
L 268.052089 223.31323 
L 268.405536 223.60011 
L 271.586563 223.60011 
L 271.94001 223.913057 
L 275.121037 223.913057 
L 275.474484 224.189113 
L 278.655511 224.189113 
L 279.008959 224.406511 
L 282.189985 224.406511 
L 282.543433 224.635287 
L 285.724459 224.635287 
L 286.077907 224.875708 
L 289.258933 224.875708 
L 289.612381 225.013665 
L 292.793407 225.013665 
L 293.146855 225.21154 
L 296.327881 225.21154 
L 296.681329 225.37785 
L 299.862356 225.37785 
L 300.215803 225.573678 
L 306.931304 225.63196 
L 307.284751 225.774811 
L 310.465778 225.774811 
L 310.819225 225.99325 
L 317.534726 226.070982 
L 317.888173 226.205263 
L 321.0692 226.205263 
L 321.422647 226.336081 
L 324.603674 226.336081 
L 324.957121 226.460671 
L 331.672622 226.525332 
L 332.02607 226.653369 
L 338.74157 226.750227 
L 339.448465 226.84558 
L 345.810519 226.913115 
L 346.517413 226.984518 
L 352.879467 227.086295 
L 353.939809 227.128841 
L 363.482889 227.209693 
L 364.189784 227.281103 
L 377.620785 227.345756 
L 378.681127 227.398264 
L 391.758681 227.494454 
L 392.819024 227.544316 
L 402.362104 227.646039 
L 404.482788 227.665846 
L 412.965526 227.733246 
L 414.025868 227.782515 
L 416.5 227.782515 
L 416.5 227.782515 
" style="fill:none;stroke:#e41a1c;stroke-linecap:square;stroke-width:2;"/>
   </g>
   <g id="patch_3">
    <path d="M 63.40604 228 
L 63.40604 15.5 
" style="fill:none;stroke:#000000;stroke-linecap:square;stroke-linejoin:miter;stroke-width:0.8;"/>
   </g>
   <g id="patch_4">
    <path d="M 416.5 228 
L 416.5 15.5 
" style="fill:none;"/>
   </g>
   <g id="patch_5">
    <path d="M 63.40604 228 
L 416.5 228 
" style="fill:none;stroke:#000000;stroke-linecap:square;stroke-linejoin:miter;stroke-width:0.8;"/>
   </g>
   <g id="patch_6">
    <path d="M 63.40604 15.5 
L 416.5 15.5 
" style="fill:none;"/>
   </g>
   <g id="legend_1">
    <g id="patch_7">
     <path d="M 319.02827 45.03585 
L 411.7 45.03585 
Q 414.9 45.03585 414.9 41.83585 
L 414.9 20.3 
Q 414.9 17.1 411.7 17.1 
L 319.02827 17.1 
Q 315.82827 17.1 315.82827 20.3 
L 315.82827 41.83585 
Q 315.82827 45.03585 319.02827 45.03585 
z
" style="fill:#ffffff;stroke:#000000;stroke-linejoin:miter;"/>
    </g>
    <g id="line2d_13">
     <path d="M 322.22827 29.75596 
L 354.22827 29.75596 
" style="fill:none;stroke:#e41a1c;stroke-linecap:square;stroke-width:2;"/>
    </g>
    <g id="line2d_14"/>
    <g id="text_14">
     <!-- Input -->
     <g transform="translate(367.02827 35.35596)scale(0.16 -0.16)">
      <use transform="translate(0 -1.570628)scale(0.996264)" xlink:href="#Century_Schoolbook_L_Roman-73"/>
      <use transform="translate(40.547425 -1.570628)scale(0.996264)" xlink:href="#Century_Schoolbook_L_Roman-110"/>
      <use transform="translate(101.419056 -1.570628)scale(0.996264)" xlink:href="#Century_Schoolbook_L_Roman-112"/>
      <use transform="translate(158.604543 -1.570628)scale(0.996264)" xlink:href="#Century_Schoolbook_L_Roman-117"/>
      <use transform="translate(219.476174 -1.570628)scale(0.996264)" xlink:href="#Century_Schoolbook_L_Roman-116"/>
     </g>
    </g>
   </g>
  </g>
 </g>
 <defs>
  <clipPath id="p8f94008b2b">
   <rect height="212.5" width="353.09396" x="63.40604" y="15.5"/>
  </clipPath>
 </defs>
</svg>
